<svg width="1940" height="343" viewBox="0 0 1940 343" fill="none" xmlns="http://www.w3.org/2000/svg">
<g clip-path="url(#clip0_443_857)">
<rect width="1940" height="343" fill="white"/>
<rect x="-3.8999" width="80.3148" height="20.5514" rx="3" fill="#E14646" fill-opacity="0.3"/>
<path d="M3.75297 14V3.81818H7.19332C7.98877 3.81818 8.64171 3.95407 9.15212 4.22585C9.66254 4.49432 10.0404 4.86387 10.2856 5.33452C10.5309 5.80516 10.6535 6.34044 10.6535 6.94034C10.6535 7.54025 10.5309 8.07221 10.2856 8.53622C10.0404 9.00024 9.6642 9.36482 9.15709 9.62997C8.64999 9.89181 8.00203 10.0227 7.2132 10.0227H4.42911V8.90909H7.17343C7.71699 8.90909 8.15449 8.82955 8.48593 8.67045C8.82068 8.51136 9.06263 8.28598 9.21178 7.99432C9.36424 7.69934 9.44047 7.34801 9.44047 6.94034C9.44047 6.53267 9.36424 6.17637 9.21178 5.87145C9.05932 5.56652 8.81571 5.3312 8.48096 5.16548C8.1462 4.99645 7.70373 4.91193 7.15354 4.91193H4.98593V14H3.75297ZM8.54559 9.42614L11.0513 14H9.61945L7.15354 9.42614H8.54559ZM15.6686 14.1591C14.9328 14.1591 14.2981 13.9967 13.7645 13.6719C13.2342 13.3438 12.8249 12.8864 12.5365 12.2997C12.2515 11.7098 12.109 11.0237 12.109 10.2415C12.109 9.45928 12.2515 8.76989 12.5365 8.1733C12.8249 7.57339 13.2259 7.10606 13.7397 6.77131C14.2567 6.43324 14.8599 6.2642 15.5493 6.2642C15.947 6.2642 16.3398 6.33049 16.7276 6.46307C17.1154 6.59564 17.4684 6.81108 17.7865 7.10938C18.1047 7.40436 18.3583 7.79545 18.5472 8.28267C18.7361 8.76989 18.8306 9.36979 18.8306 10.0824V10.5795H12.9442V9.56534H17.6374C17.6374 9.13447 17.5512 8.75 17.3789 8.41193C17.2098 8.07386 16.9679 7.80705 16.653 7.61151C16.3415 7.41596 15.9736 7.31818 15.5493 7.31818C15.082 7.31818 14.6776 7.43419 14.3362 7.66619C13.9982 7.89489 13.738 8.19318 13.5557 8.56108C13.3734 8.92898 13.2823 9.32339 13.2823 9.74432V10.4205C13.2823 10.9972 13.3817 11.486 13.5806 11.8871C13.7827 12.2848 14.0628 12.5881 14.4208 12.7969C14.7787 13.0024 15.1947 13.1051 15.6686 13.1051C15.9769 13.1051 16.2553 13.062 16.5039 12.9759C16.7558 12.8864 16.9728 12.7538 17.1551 12.5781C17.3374 12.3991 17.4783 12.1771 17.5777 11.9119L18.7112 12.2301C18.5919 12.6146 18.3914 12.9527 18.1097 13.2443C17.828 13.5327 17.48 13.758 17.0657 13.9205C16.6514 14.0795 16.1857 14.1591 15.6686 14.1591ZM23.4989 14.1591C22.8625 14.1591 22.3007 13.9983 21.8135 13.6768C21.3263 13.352 20.9451 12.8946 20.6701 12.3047C20.395 11.7114 20.2574 11.0104 20.2574 10.2017C20.2574 9.39962 20.395 8.7036 20.6701 8.11364C20.9451 7.52367 21.328 7.06794 21.8185 6.74645C22.309 6.42495 22.8758 6.2642 23.5188 6.2642C24.0159 6.2642 24.4087 6.34706 24.697 6.51278C24.9887 6.67519 25.2108 6.8608 25.3632 7.0696C25.519 7.27509 25.64 7.44413 25.7262 7.5767H25.8256V3.81818H26.9989V14H25.8654V12.8267H25.7262C25.64 12.9659 25.5174 13.1416 25.3583 13.3537C25.1992 13.5625 24.9721 13.7498 24.6772 13.9155C24.3822 14.0779 23.9894 14.1591 23.4989 14.1591ZM23.658 13.1051C24.1286 13.1051 24.5264 12.9825 24.8512 12.7372C25.176 12.4886 25.4229 12.1456 25.5919 11.7081C25.761 11.2673 25.8455 10.7585 25.8455 10.1818C25.8455 9.61174 25.7626 9.11293 25.5969 8.68537C25.4312 8.2545 25.1859 7.91974 24.8611 7.68111C24.5363 7.43916 24.1353 7.31818 23.658 7.31818C23.1608 7.31818 22.7465 7.44579 22.4151 7.70099C22.087 7.95289 21.84 8.29593 21.6743 8.73011C21.5119 9.16098 21.4307 9.64489 21.4307 10.1818C21.4307 10.7254 21.5136 11.2192 21.6793 11.6634C21.8483 12.1042 22.0969 12.4555 22.425 12.7173C22.7565 12.9759 23.1675 13.1051 23.658 13.1051ZM36.5692 6.36364V7.35795H32.6118V6.36364H36.5692ZM33.7652 4.53409H34.9385V11.8125C34.9385 12.1439 34.9866 12.3925 35.0827 12.5582C35.1821 12.7206 35.3081 12.83 35.4605 12.8864C35.6163 12.9394 35.7804 12.9659 35.9527 12.9659C36.082 12.9659 36.188 12.9593 36.2709 12.946C36.3538 12.9295 36.4201 12.9162 36.4698 12.9062L36.7084 13.9602C36.6289 13.9901 36.5178 14.0199 36.3753 14.0497C36.2328 14.0829 36.0522 14.0994 35.8334 14.0994C35.502 14.0994 35.1772 14.0282 34.859 13.8857C34.5441 13.7431 34.2823 13.526 34.0735 13.2344C33.868 12.9427 33.7652 12.5748 33.7652 12.1307V4.53409ZM40.5813 14.179C40.0974 14.179 39.6582 14.0878 39.2638 13.9055C38.8694 13.7199 38.5562 13.4531 38.3242 13.1051C38.0922 12.7538 37.9762 12.3295 37.9762 11.8324C37.9762 11.3949 38.0623 11.0402 38.2347 10.7685C38.407 10.4934 38.6374 10.2779 38.9257 10.1222C39.2141 9.96638 39.5323 9.85038 39.8803 9.77415C40.2316 9.6946 40.5846 9.63163 40.9392 9.58523C41.4032 9.52557 41.7794 9.48082 42.0678 9.45099C42.3594 9.41785 42.5716 9.36316 42.7041 9.28693C42.84 9.2107 42.908 9.07812 42.908 8.8892V8.84943C42.908 8.3589 42.7737 7.97775 42.5053 7.70597C42.2401 7.43419 41.8374 7.2983 41.2972 7.2983C40.7371 7.2983 40.2979 7.42093 39.9797 7.66619C39.6615 7.91146 39.4378 8.1733 39.3085 8.4517L38.1949 8.05398C38.3938 7.58996 38.6589 7.22869 38.9904 6.97017C39.3251 6.70833 39.6897 6.52604 40.0841 6.4233C40.4818 6.31723 40.8729 6.2642 41.2574 6.2642C41.5027 6.2642 41.7844 6.29403 42.1026 6.35369C42.4241 6.41004 42.734 6.5277 43.0323 6.70668C43.3339 6.88565 43.5841 7.15578 43.783 7.51705C43.9818 7.87831 44.0813 8.36222 44.0813 8.96875V14H42.908V12.9659H42.8483C42.7688 13.1316 42.6362 13.3089 42.4506 13.4979C42.265 13.6868 42.0181 13.8475 41.7098 13.9801C41.4016 14.1127 41.0254 14.179 40.5813 14.179ZM40.7603 13.125C41.2243 13.125 41.6154 13.0339 41.9335 12.8516C42.255 12.6693 42.497 12.4339 42.6594 12.1456C42.8251 11.8572 42.908 11.554 42.908 11.2358V10.1619C42.8583 10.2216 42.7489 10.2763 42.5799 10.326C42.4141 10.3724 42.2219 10.4138 42.0032 10.4503C41.7877 10.4834 41.5773 10.5133 41.3718 10.5398C41.1696 10.563 41.0055 10.5829 40.8796 10.5994C40.5746 10.6392 40.2896 10.7038 40.0245 10.7933C39.7626 10.8795 39.5505 11.0104 39.3881 11.1861C39.229 11.3584 39.1495 11.5937 39.1495 11.892C39.1495 12.2997 39.3003 12.608 39.6019 12.8168C39.9068 13.0223 40.2929 13.125 40.7603 13.125ZM49.3052 17.0227C48.7384 17.0227 48.2512 16.9498 47.8435 16.804C47.4359 16.6615 47.0961 16.4725 46.8244 16.2372C46.5559 16.0052 46.3421 15.7566 46.183 15.4915L47.1177 14.8352C47.2237 14.9744 47.358 15.1335 47.5204 15.3125C47.6828 15.4948 47.9048 15.6522 48.1866 15.7848C48.4716 15.9207 48.8445 15.9886 49.3052 15.9886C49.9217 15.9886 50.4304 15.8395 50.8315 15.5412C51.2325 15.2429 51.433 14.7756 51.433 14.1392V12.5881H51.3336C51.2474 12.7273 51.1248 12.8996 50.9657 13.1051C50.8099 13.3073 50.5845 13.4879 50.2896 13.647C49.9979 13.8028 49.6035 13.8807 49.1063 13.8807C48.4898 13.8807 47.9363 13.7348 47.4458 13.4432C46.9586 13.1515 46.5725 12.7273 46.2874 12.1705C46.0057 11.6136 45.8648 10.9375 45.8648 10.142C45.8648 9.35985 46.0024 8.67874 46.2775 8.09872C46.5526 7.51539 46.9354 7.06463 47.4259 6.74645C47.9164 6.42495 48.4832 6.2642 49.1262 6.2642C49.6234 6.2642 50.0178 6.34706 50.3094 6.51278C50.6044 6.67519 50.8298 6.8608 50.9856 7.0696C51.1447 7.27509 51.2673 7.44413 51.3535 7.5767H51.4728V6.36364H52.6063V14.2188C52.6063 14.875 52.4572 15.4086 52.1589 15.8196C51.8639 16.2339 51.4662 16.5372 50.9657 16.7294C50.4685 16.925 49.915 17.0227 49.3052 17.0227ZM49.2654 12.8267C49.736 12.8267 50.1338 12.719 50.4586 12.5036C50.7834 12.2881 51.0303 11.9782 51.1994 11.5739C51.3684 11.1695 51.4529 10.6856 51.4529 10.1222C51.4529 9.57197 51.37 9.08641 51.2043 8.66548C51.0386 8.24455 50.7933 7.91477 50.4685 7.67614C50.1437 7.4375 49.7427 7.31818 49.2654 7.31818C48.7682 7.31818 48.3539 7.44413 48.0225 7.69602C47.6944 7.94792 47.4475 8.28598 47.2817 8.71023C47.1193 9.13447 47.0381 9.60511 47.0381 10.1222C47.0381 10.6525 47.121 11.1214 47.2867 11.5291C47.4557 11.9335 47.7043 12.2517 48.0324 12.4837C48.3639 12.7124 48.7749 12.8267 49.2654 12.8267Z" fill="#37352F"/>
<path d="M-4 0H1944V343H-4V0Z" fill="#CCFFE2"/>
<path fill-rule="evenodd" clip-rule="evenodd" d="M1943.55 237.166V343H475.379C535.532 293.689 599.915 248.214 668.419 207.174C1082.63 -40.9782 1540.57 29.3675 1943.55 237.166Z" fill="#FFECEA"/>
<path fill-rule="evenodd" clip-rule="evenodd" d="M1373.87 169.08C1373.93 113.585 1408.92 58.5252 1467.21 46.2886C1518.96 35.4249 1554.8 83.747 1584.16 124.933C1611.76 163.654 1640.07 210.579 1611.16 248.223C1579.64 289.281 1518.29 294.69 1466.96 277.572C1415.17 260.296 1373.82 220.063 1373.87 169.08Z" fill="#0018A4"/>
<path fill-rule="evenodd" clip-rule="evenodd" d="M135.668 64.0355C166.613 63.0843 197.932 81.711 205.784 114.146C212.755 142.942 186.443 163.876 163.996 181.054C142.892 197.204 117.226 213.893 95.7253 198.369C72.2753 181.438 68.1762 147.165 76.8156 118.11C85.5343 88.7876 107.239 64.9093 135.668 64.0355Z" fill="white"/>
<rect x="-4" width="1944" height="100" fill="#0018A4"/>
<path d="M-53.2373 47.65C-53.2373 43.263 -56.5173 39.696 -60.9863 39.532V55.768C-56.5173 55.604 -53.2373 52.037 -53.2373 47.65ZM-60.9863 56.424V61.344C-53.5243 61.18 -47.6613 55.153 -47.6613 47.65C-47.6613 40.188 -53.5243 34.12 -60.9863 33.956V38.876C-56.1073 39.04 -52.5813 42.935 -52.5813 47.65C-52.5813 52.365 -56.1073 56.26 -60.9863 56.424ZM-67.2183 62V33.3H-61.3143C-53.3603 33.3 -47.0053 39.737 -47.0053 47.65C-47.0053 55.563 -53.3603 62 -61.3143 62H-67.2183ZM-61.6423 55.768V39.532H-66.5623V55.768H-61.6423ZM-61.6423 56.424H-66.5623V61.344H-61.6423V56.424ZM-61.6423 38.876V33.956H-66.5623V38.876H-61.6423ZM-33.761 62.492C-40.034 62.492 -45.118 57.408 -45.118 51.135C-45.118 44.862 -40.034 39.778 -33.761 39.778C-27.488 39.778 -22.404 44.862 -22.404 51.135C-22.404 57.408 -27.488 62.492 -33.761 62.492ZM-33.761 61.836C-27.857 61.836 -23.06 57.039 -23.06 51.135C-23.06 45.231 -27.857 40.434 -33.761 40.434C-39.665 40.434 -44.462 45.231 -44.462 51.135C-44.462 57.039 -39.665 61.836 -33.761 61.836ZM-33.761 56.916C-36.959 56.916 -39.542 54.333 -39.542 51.135C-39.542 47.937 -36.959 45.354 -33.761 45.354C-30.563 45.354 -27.98 47.937 -27.98 51.135C-27.98 54.333 -30.563 56.916 -33.761 56.916ZM-33.761 56.26C-30.932 56.26 -28.636 53.964 -28.636 51.135C-28.636 48.306 -30.932 46.01 -33.761 46.01C-36.59 46.01 -38.886 48.306 -38.886 51.135C-38.886 53.964 -36.59 56.26 -33.761 56.26ZM-20.6532 51.135C-20.6532 44.862 -15.5692 39.778 -9.29617 39.778C-7.45118 39.778 -5.72918 40.229 -4.17117 41.008V40.27H-3.51517V41.377C-1.21917 42.648 0.543826 44.944 1.40482 47.322V40.27H2.06083V60.155C2.06083 66.428 -2.98218 71.512 -9.29617 71.512C-13.1912 71.512 -16.6352 69.503 -18.7262 66.51L-18.1522 66.182C-16.1842 69.011 -12.9452 70.856 -9.29617 70.856C-3.31017 70.856 1.40482 66.1 1.40482 60.155V54.907C0.584825 57.285 -1.26017 59.663 -3.59717 60.934C-4.00717 63.722 -6.34417 65.936 -9.29617 65.936C-11.1412 65.936 -12.8222 65.034 -13.8882 63.722L-13.3142 63.394C-12.4122 64.501 -10.8952 65.28 -9.29617 65.28C-6.83617 65.28 -4.82717 63.599 -4.29417 61.344C-5.81118 62.041 -7.53318 62.492 -9.29617 62.492C-15.5692 62.492 -20.6532 57.408 -20.6532 51.135ZM-19.9972 51.135C-19.9972 57.039 -15.2002 61.836 -9.29617 61.836C-7.45118 61.836 -5.72918 61.385 -4.21218 60.565C-4.17117 60.278 -4.17117 59.745 -4.17117 59.212V53.841C-5.15518 55.645 -7.08218 56.916 -9.29617 56.916C-12.4942 56.916 -15.0772 54.333 -15.0772 51.135C-15.0772 47.937 -12.4942 45.354 -9.29617 45.354C-7.08218 45.354 -5.15518 46.625 -4.17117 48.47V41.746C-5.68817 40.926 -7.45118 40.434 -9.29617 40.434C-15.2002 40.434 -19.9972 45.231 -19.9972 51.135ZM-14.4212 51.135C-14.4212 53.964 -12.1252 56.26 -9.29617 56.26C-6.42618 56.26 -4.17117 53.964 -4.17117 51.135C-4.17117 48.306 -6.42618 46.01 -9.29617 46.01C-12.1252 46.01 -14.4212 48.306 -14.4212 51.135ZM-3.51517 42.115V60.155C-0.768175 58.474 1.40482 55.071 1.40482 51.135C1.40482 47.199 -0.768175 43.796 -3.51517 42.115ZM21.5743 50.11H29.4873V50.766H21.5743V62H20.9183V50.766H15.9983V62H15.3423V33.3H32.4393V33.956H21.5743V38.876H32.4393V39.532H21.5743V44.534H29.4873V45.19H21.5743V50.11ZM15.9983 39.532V44.534H20.9183V39.532H15.9983ZM20.9183 45.19H15.9983V50.11H20.9183V45.19ZM15.9983 33.956V38.876H20.9183V33.956H15.9983ZM49.1753 42.115V60.155C51.9223 58.474 54.0953 55.071 54.0953 51.135C54.0953 47.199 51.9223 43.796 49.1753 42.115ZM43.3943 39.778C45.2393 39.778 46.9613 40.229 48.5193 41.008V40.27H49.1753V41.377C51.4713 42.648 53.2343 44.944 54.0953 47.322V40.27H54.7513V62H54.0953V54.907C53.2753 57.244 51.4713 59.663 49.1753 60.934V62H48.5193V61.262C46.9613 62.041 45.2393 62.492 43.3943 62.492C37.1213 62.492 32.0373 57.408 32.0373 51.135C32.0373 44.862 37.1213 39.778 43.3943 39.778ZM43.3943 61.836C45.2393 61.836 47.0023 61.385 48.5193 60.565V53.841C47.5353 55.645 45.6083 56.916 43.3943 56.916C40.1963 56.916 37.6133 54.333 37.6133 51.135C37.6133 47.937 40.1963 45.354 43.3943 45.354C45.6083 45.354 47.5353 46.625 48.5193 48.47V41.746C47.0023 40.926 45.2393 40.434 43.3943 40.434C37.4903 40.434 32.6933 45.231 32.6933 51.135C32.6933 57.039 37.4903 61.836 43.3943 61.836ZM43.3943 56.26C46.2643 56.26 48.5193 53.964 48.5193 51.135C48.5193 48.306 46.2643 46.01 43.3943 46.01C40.5653 46.01 38.2693 48.306 38.2693 51.135C38.2693 53.964 40.5653 56.26 43.3943 56.26ZM69.7973 45.846V46.502H68.6083C66.1073 46.502 63.9753 48.634 63.9753 51.135C63.9753 53.636 66.1073 55.768 68.6083 55.768H69.7973V56.424H68.6083C65.7383 56.424 63.3193 54.005 63.3193 51.135C63.3193 48.265 65.7383 45.846 68.6083 45.846H69.7973ZM69.7973 40.926H68.6083C62.9913 40.926 58.3993 45.518 58.3993 51.135C58.3993 56.752 62.9913 61.344 68.6083 61.344H69.7973V62H68.6083C62.6223 62 57.7433 57.121 57.7433 51.135C57.7433 45.149 62.6223 40.27 68.6083 40.27H69.7973V40.926ZM75.3163 40.926H72.0773V40.27H75.3163V33.3H75.9723V40.27H80.8923V33.3H81.5483V40.27H84.7873V40.926H81.5483V45.846H84.7873V46.502H81.5483V62H80.8923V46.502H75.9723V62H75.3163V46.502H72.0773V45.846H75.3163V40.926ZM80.8923 40.926H75.9723V45.846H80.8923V40.926ZM86.7764 46.953C86.7764 42.976 89.9744 39.778 93.9514 39.778C96.9034 39.778 99.4454 41.582 100.552 44.124L99.9374 44.411C98.9534 42.074 96.6164 40.434 93.9514 40.434C90.3434 40.434 87.4324 43.345 87.4324 46.953C87.4324 50.028 89.5234 52.57 92.3934 53.308L94.1974 53.759C94.8944 53.923 95.3864 54.579 95.3864 55.317C95.3864 56.219 94.6894 56.916 93.7874 56.916C93.0904 56.916 92.5164 56.506 92.2704 55.85L92.8854 55.604C93.0084 55.973 93.3364 56.26 93.7874 56.26C94.3204 56.26 94.7304 55.85 94.7304 55.317C94.7304 54.866 94.4844 54.497 94.0334 54.374L92.1884 53.923C89.0724 53.144 86.7764 50.315 86.7764 46.953ZM87.1864 58.187L87.8014 57.9C88.7854 60.237 91.0814 61.836 93.7874 61.836C97.3954 61.836 100.306 58.925 100.306 55.317C100.306 52.242 98.2154 49.7 95.3454 48.962L93.5414 48.511C92.8034 48.306 92.3524 47.691 92.3524 46.953C92.3524 46.051 93.0494 45.354 93.9514 45.354C94.6484 45.354 95.2224 45.805 95.4274 46.42L94.8534 46.666C94.7304 46.297 94.3614 46.01 93.9514 46.01C93.4184 46.01 93.0084 46.42 93.0084 46.953C93.0084 47.404 93.2544 47.773 93.7054 47.896L95.5504 48.347C98.7074 49.126 100.962 51.955 100.962 55.317C100.962 59.294 97.7644 62.492 93.7874 62.492C90.8354 62.492 88.2934 60.729 87.1864 58.187ZM127.299 47.65C127.299 43.263 124.019 39.696 119.55 39.532V55.768C124.019 55.604 127.299 52.037 127.299 47.65ZM119.55 56.424V61.344C127.012 61.18 132.875 55.153 132.875 47.65C132.875 40.188 127.012 34.12 119.55 33.956V38.876C124.429 39.04 127.955 42.935 127.955 47.65C127.955 52.365 124.429 56.26 119.55 56.424ZM113.318 62V33.3H119.222C127.176 33.3 133.531 39.737 133.531 47.65C133.531 55.563 127.176 62 119.222 62H113.318ZM118.894 55.768V39.532H113.974V55.768H118.894ZM118.894 56.424H113.974V61.344H118.894V56.424ZM118.894 38.876V33.956H113.974V38.876H118.894ZM146.775 62.492C140.502 62.492 135.418 57.408 135.418 51.135C135.418 44.862 140.502 39.778 146.775 39.778C153.048 39.778 158.132 44.862 158.132 51.135C158.132 57.408 153.048 62.492 146.775 62.492ZM146.775 61.836C152.679 61.836 157.476 57.039 157.476 51.135C157.476 45.231 152.679 40.434 146.775 40.434C140.871 40.434 136.074 45.231 136.074 51.135C136.074 57.039 140.871 61.836 146.775 61.836ZM146.775 56.916C143.577 56.916 140.994 54.333 140.994 51.135C140.994 47.937 143.577 45.354 146.775 45.354C149.973 45.354 152.556 47.937 152.556 51.135C152.556 54.333 149.973 56.916 146.775 56.916ZM146.775 56.26C149.604 56.26 151.9 53.964 151.9 51.135C151.9 48.306 149.604 46.01 146.775 46.01C143.946 46.01 141.65 48.306 141.65 51.135C141.65 53.964 143.946 56.26 146.775 56.26ZM159.883 51.135C159.883 44.862 164.967 39.778 171.24 39.778C173.085 39.778 174.807 40.229 176.365 41.008V40.27H177.021V41.377C179.317 42.648 181.08 44.944 181.941 47.322V40.27H182.597V60.155C182.597 66.428 177.554 71.512 171.24 71.512C167.345 71.512 163.901 69.503 161.81 66.51L162.384 66.182C164.352 69.011 167.591 70.856 171.24 70.856C177.226 70.856 181.941 66.1 181.941 60.155V54.907C181.121 57.285 179.276 59.663 176.939 60.934C176.529 63.722 174.192 65.936 171.24 65.936C169.395 65.936 167.714 65.034 166.648 63.722L167.222 63.394C168.124 64.501 169.641 65.28 171.24 65.28C173.7 65.28 175.709 63.599 176.242 61.344C174.725 62.041 173.003 62.492 171.24 62.492C164.967 62.492 159.883 57.408 159.883 51.135ZM160.539 51.135C160.539 57.039 165.336 61.836 171.24 61.836C173.085 61.836 174.807 61.385 176.324 60.565C176.365 60.278 176.365 59.745 176.365 59.212V53.841C175.381 55.645 173.454 56.916 171.24 56.916C168.042 56.916 165.459 54.333 165.459 51.135C165.459 47.937 168.042 45.354 171.24 45.354C173.454 45.354 175.381 46.625 176.365 48.47V41.746C174.848 40.926 173.085 40.434 171.24 40.434C165.336 40.434 160.539 45.231 160.539 51.135ZM166.115 51.135C166.115 53.964 168.411 56.26 171.24 56.26C174.11 56.26 176.365 53.964 176.365 51.135C176.365 48.306 174.11 46.01 171.24 46.01C168.411 46.01 166.115 48.306 166.115 51.135ZM177.021 42.115V60.155C179.768 58.474 181.941 55.071 181.941 51.135C181.941 47.199 179.768 43.796 177.021 42.115ZM202.11 50.11H210.023V50.766H202.11V62H201.454V50.766H196.534V62H195.878V33.3H212.975V33.956H202.11V38.876H212.975V39.532H202.11V44.534H210.023V45.19H202.11V50.11ZM196.534 39.532V44.534H201.454V39.532H196.534ZM201.454 45.19H196.534V50.11H201.454V45.19ZM196.534 33.956V38.876H201.454V33.956H196.534ZM229.711 42.115V60.155C232.458 58.474 234.631 55.071 234.631 51.135C234.631 47.199 232.458 43.796 229.711 42.115ZM223.93 39.778C225.775 39.778 227.497 40.229 229.055 41.008V40.27H229.711V41.377C232.007 42.648 233.77 44.944 234.631 47.322V40.27H235.287V62H234.631V54.907C233.811 57.244 232.007 59.663 229.711 60.934V62H229.055V61.262C227.497 62.041 225.775 62.492 223.93 62.492C217.657 62.492 212.573 57.408 212.573 51.135C212.573 44.862 217.657 39.778 223.93 39.778ZM223.93 61.836C225.775 61.836 227.538 61.385 229.055 60.565V53.841C228.071 55.645 226.144 56.916 223.93 56.916C220.732 56.916 218.149 54.333 218.149 51.135C218.149 47.937 220.732 45.354 223.93 45.354C226.144 45.354 228.071 46.625 229.055 48.47V41.746C227.538 40.926 225.775 40.434 223.93 40.434C218.026 40.434 213.229 45.231 213.229 51.135C213.229 57.039 218.026 61.836 223.93 61.836ZM223.93 56.26C226.8 56.26 229.055 53.964 229.055 51.135C229.055 48.306 226.8 46.01 223.93 46.01C221.101 46.01 218.805 48.306 218.805 51.135C218.805 53.964 221.101 56.26 223.93 56.26ZM250.333 45.846V46.502H249.144C246.643 46.502 244.511 48.634 244.511 51.135C244.511 53.636 246.643 55.768 249.144 55.768H250.333V56.424H249.144C246.274 56.424 243.855 54.005 243.855 51.135C243.855 48.265 246.274 45.846 249.144 45.846H250.333ZM250.333 40.926H249.144C243.527 40.926 238.935 45.518 238.935 51.135C238.935 56.752 243.527 61.344 249.144 61.344H250.333V62H249.144C243.158 62 238.279 57.121 238.279 51.135C238.279 45.149 243.158 40.27 249.144 40.27H250.333V40.926ZM255.852 40.926H252.613V40.27H255.852V33.3H256.508V40.27H261.428V33.3H262.084V40.27H265.323V40.926H262.084V45.846H265.323V46.502H262.084V62H261.428V46.502H256.508V62H255.852V46.502H252.613V45.846H255.852V40.926ZM261.428 40.926H256.508V45.846H261.428V40.926ZM267.313 46.953C267.313 42.976 270.511 39.778 274.488 39.778C277.44 39.778 279.982 41.582 281.089 44.124L280.474 44.411C279.49 42.074 277.153 40.434 274.488 40.434C270.88 40.434 267.969 43.345 267.969 46.953C267.969 50.028 270.06 52.57 272.93 53.308L274.734 53.759C275.431 53.923 275.923 54.579 275.923 55.317C275.923 56.219 275.226 56.916 274.324 56.916C273.627 56.916 273.053 56.506 272.807 55.85L273.422 55.604C273.545 55.973 273.873 56.26 274.324 56.26C274.857 56.26 275.267 55.85 275.267 55.317C275.267 54.866 275.021 54.497 274.57 54.374L272.725 53.923C269.609 53.144 267.313 50.315 267.313 46.953ZM267.723 58.187L268.338 57.9C269.322 60.237 271.618 61.836 274.324 61.836C277.932 61.836 280.843 58.925 280.843 55.317C280.843 52.242 278.752 49.7 275.882 48.962L274.078 48.511C273.34 48.306 272.889 47.691 272.889 46.953C272.889 46.051 273.586 45.354 274.488 45.354C275.185 45.354 275.759 45.805 275.964 46.42L275.39 46.666C275.267 46.297 274.898 46.01 274.488 46.01C273.955 46.01 273.545 46.42 273.545 46.953C273.545 47.404 273.791 47.773 274.242 47.896L276.087 48.347C279.244 49.126 281.499 51.955 281.499 55.317C281.499 59.294 278.301 62.492 274.324 62.492C271.372 62.492 268.83 60.729 267.723 58.187ZM307.835 47.65C307.835 43.263 304.555 39.696 300.086 39.532V55.768C304.555 55.604 307.835 52.037 307.835 47.65ZM300.086 56.424V61.344C307.548 61.18 313.411 55.153 313.411 47.65C313.411 40.188 307.548 34.12 300.086 33.956V38.876C304.965 39.04 308.491 42.935 308.491 47.65C308.491 52.365 304.965 56.26 300.086 56.424ZM293.854 62V33.3H299.758C307.712 33.3 314.067 39.737 314.067 47.65C314.067 55.563 307.712 62 299.758 62H293.854ZM299.43 55.768V39.532H294.51V55.768H299.43ZM299.43 56.424H294.51V61.344H299.43V56.424ZM299.43 38.876V33.956H294.51V38.876H299.43ZM327.311 62.492C321.038 62.492 315.954 57.408 315.954 51.135C315.954 44.862 321.038 39.778 327.311 39.778C333.584 39.778 338.668 44.862 338.668 51.135C338.668 57.408 333.584 62.492 327.311 62.492ZM327.311 61.836C333.215 61.836 338.012 57.039 338.012 51.135C338.012 45.231 333.215 40.434 327.311 40.434C321.407 40.434 316.61 45.231 316.61 51.135C316.61 57.039 321.407 61.836 327.311 61.836ZM327.311 56.916C324.113 56.916 321.53 54.333 321.53 51.135C321.53 47.937 324.113 45.354 327.311 45.354C330.509 45.354 333.092 47.937 333.092 51.135C333.092 54.333 330.509 56.916 327.311 56.916ZM327.311 56.26C330.14 56.26 332.436 53.964 332.436 51.135C332.436 48.306 330.14 46.01 327.311 46.01C324.482 46.01 322.186 48.306 322.186 51.135C322.186 53.964 324.482 56.26 327.311 56.26ZM340.419 51.135C340.419 44.862 345.503 39.778 351.776 39.778C353.621 39.778 355.343 40.229 356.901 41.008V40.27H357.557V41.377C359.853 42.648 361.616 44.944 362.477 47.322V40.27H363.133V60.155C363.133 66.428 358.09 71.512 351.776 71.512C347.881 71.512 344.437 69.503 342.346 66.51L342.92 66.182C344.888 69.011 348.127 70.856 351.776 70.856C357.762 70.856 362.477 66.1 362.477 60.155V54.907C361.657 57.285 359.812 59.663 357.475 60.934C357.065 63.722 354.728 65.936 351.776 65.936C349.931 65.936 348.25 65.034 347.184 63.722L347.758 63.394C348.66 64.501 350.177 65.28 351.776 65.28C354.236 65.28 356.245 63.599 356.778 61.344C355.261 62.041 353.539 62.492 351.776 62.492C345.503 62.492 340.419 57.408 340.419 51.135ZM341.075 51.135C341.075 57.039 345.872 61.836 351.776 61.836C353.621 61.836 355.343 61.385 356.86 60.565C356.901 60.278 356.901 59.745 356.901 59.212V53.841C355.917 55.645 353.99 56.916 351.776 56.916C348.578 56.916 345.995 54.333 345.995 51.135C345.995 47.937 348.578 45.354 351.776 45.354C353.99 45.354 355.917 46.625 356.901 48.47V41.746C355.384 40.926 353.621 40.434 351.776 40.434C345.872 40.434 341.075 45.231 341.075 51.135ZM346.651 51.135C346.651 53.964 348.947 56.26 351.776 56.26C354.646 56.26 356.901 53.964 356.901 51.135C356.901 48.306 354.646 46.01 351.776 46.01C348.947 46.01 346.651 48.306 346.651 51.135ZM357.557 42.115V60.155C360.304 58.474 362.477 55.071 362.477 51.135C362.477 47.199 360.304 43.796 357.557 42.115ZM382.647 50.11H390.56V50.766H382.647V62H381.991V50.766H377.071V62H376.415V33.3H393.512V33.956H382.647V38.876H393.512V39.532H382.647V44.534H390.56V45.19H382.647V50.11ZM377.071 39.532V44.534H381.991V39.532H377.071ZM381.991 45.19H377.071V50.11H381.991V45.19ZM377.071 33.956V38.876H381.991V33.956H377.071ZM410.248 42.115V60.155C412.995 58.474 415.168 55.071 415.168 51.135C415.168 47.199 412.995 43.796 410.248 42.115ZM404.467 39.778C406.312 39.778 408.034 40.229 409.592 41.008V40.27H410.248V41.377C412.544 42.648 414.307 44.944 415.168 47.322V40.27H415.824V62H415.168V54.907C414.348 57.244 412.544 59.663 410.248 60.934V62H409.592V61.262C408.034 62.041 406.312 62.492 404.467 62.492C398.194 62.492 393.11 57.408 393.11 51.135C393.11 44.862 398.194 39.778 404.467 39.778ZM404.467 61.836C406.312 61.836 408.075 61.385 409.592 60.565V53.841C408.608 55.645 406.681 56.916 404.467 56.916C401.269 56.916 398.686 54.333 398.686 51.135C398.686 47.937 401.269 45.354 404.467 45.354C406.681 45.354 408.608 46.625 409.592 48.47V41.746C408.075 40.926 406.312 40.434 404.467 40.434C398.563 40.434 393.766 45.231 393.766 51.135C393.766 57.039 398.563 61.836 404.467 61.836ZM404.467 56.26C407.337 56.26 409.592 53.964 409.592 51.135C409.592 48.306 407.337 46.01 404.467 46.01C401.638 46.01 399.342 48.306 399.342 51.135C399.342 53.964 401.638 56.26 404.467 56.26ZM430.87 45.846V46.502H429.681C427.18 46.502 425.048 48.634 425.048 51.135C425.048 53.636 427.18 55.768 429.681 55.768H430.87V56.424H429.681C426.811 56.424 424.392 54.005 424.392 51.135C424.392 48.265 426.811 45.846 429.681 45.846H430.87ZM430.87 40.926H429.681C424.064 40.926 419.472 45.518 419.472 51.135C419.472 56.752 424.064 61.344 429.681 61.344H430.87V62H429.681C423.695 62 418.816 57.121 418.816 51.135C418.816 45.149 423.695 40.27 429.681 40.27H430.87V40.926ZM436.389 40.926H433.15V40.27H436.389V33.3H437.045V40.27H441.965V33.3H442.621V40.27H445.86V40.926H442.621V45.846H445.86V46.502H442.621V62H441.965V46.502H437.045V62H436.389V46.502H433.15V45.846H436.389V40.926ZM441.965 40.926H437.045V45.846H441.965V40.926ZM447.849 46.953C447.849 42.976 451.047 39.778 455.024 39.778C457.976 39.778 460.518 41.582 461.625 44.124L461.01 44.411C460.026 42.074 457.689 40.434 455.024 40.434C451.416 40.434 448.505 43.345 448.505 46.953C448.505 50.028 450.596 52.57 453.466 53.308L455.27 53.759C455.967 53.923 456.459 54.579 456.459 55.317C456.459 56.219 455.762 56.916 454.86 56.916C454.163 56.916 453.589 56.506 453.343 55.85L453.958 55.604C454.081 55.973 454.409 56.26 454.86 56.26C455.393 56.26 455.803 55.85 455.803 55.317C455.803 54.866 455.557 54.497 455.106 54.374L453.261 53.923C450.145 53.144 447.849 50.315 447.849 46.953ZM448.259 58.187L448.874 57.9C449.858 60.237 452.154 61.836 454.86 61.836C458.468 61.836 461.379 58.925 461.379 55.317C461.379 52.242 459.288 49.7 456.418 48.962L454.614 48.511C453.876 48.306 453.425 47.691 453.425 46.953C453.425 46.051 454.122 45.354 455.024 45.354C455.721 45.354 456.295 45.805 456.5 46.42L455.926 46.666C455.803 46.297 455.434 46.01 455.024 46.01C454.491 46.01 454.081 46.42 454.081 46.953C454.081 47.404 454.327 47.773 454.778 47.896L456.623 48.347C459.78 49.126 462.035 51.955 462.035 55.317C462.035 59.294 458.837 62.492 454.86 62.492C451.908 62.492 449.366 60.729 448.259 58.187ZM488.371 47.65C488.371 43.263 485.091 39.696 480.622 39.532V55.768C485.091 55.604 488.371 52.037 488.371 47.65ZM480.622 56.424V61.344C488.084 61.18 493.947 55.153 493.947 47.65C493.947 40.188 488.084 34.12 480.622 33.956V38.876C485.501 39.04 489.027 42.935 489.027 47.65C489.027 52.365 485.501 56.26 480.622 56.424ZM474.39 62V33.3H480.294C488.248 33.3 494.603 39.737 494.603 47.65C494.603 55.563 488.248 62 480.294 62H474.39ZM479.966 55.768V39.532H475.046V55.768H479.966ZM479.966 56.424H475.046V61.344H479.966V56.424ZM479.966 38.876V33.956H475.046V38.876H479.966ZM507.847 62.492C501.574 62.492 496.49 57.408 496.49 51.135C496.49 44.862 501.574 39.778 507.847 39.778C514.12 39.778 519.204 44.862 519.204 51.135C519.204 57.408 514.12 62.492 507.847 62.492ZM507.847 61.836C513.751 61.836 518.548 57.039 518.548 51.135C518.548 45.231 513.751 40.434 507.847 40.434C501.943 40.434 497.146 45.231 497.146 51.135C497.146 57.039 501.943 61.836 507.847 61.836ZM507.847 56.916C504.649 56.916 502.066 54.333 502.066 51.135C502.066 47.937 504.649 45.354 507.847 45.354C511.045 45.354 513.628 47.937 513.628 51.135C513.628 54.333 511.045 56.916 507.847 56.916ZM507.847 56.26C510.676 56.26 512.972 53.964 512.972 51.135C512.972 48.306 510.676 46.01 507.847 46.01C505.018 46.01 502.722 48.306 502.722 51.135C502.722 53.964 505.018 56.26 507.847 56.26ZM520.955 51.135C520.955 44.862 526.039 39.778 532.312 39.778C534.157 39.778 535.879 40.229 537.437 41.008V40.27H538.093V41.377C540.389 42.648 542.152 44.944 543.013 47.322V40.27H543.669V60.155C543.669 66.428 538.626 71.512 532.312 71.512C528.417 71.512 524.973 69.503 522.882 66.51L523.456 66.182C525.424 69.011 528.663 70.856 532.312 70.856C538.298 70.856 543.013 66.1 543.013 60.155V54.907C542.193 57.285 540.348 59.663 538.011 60.934C537.601 63.722 535.264 65.936 532.312 65.936C530.467 65.936 528.786 65.034 527.72 63.722L528.294 63.394C529.196 64.501 530.713 65.28 532.312 65.28C534.772 65.28 536.781 63.599 537.314 61.344C535.797 62.041 534.075 62.492 532.312 62.492C526.039 62.492 520.955 57.408 520.955 51.135ZM521.611 51.135C521.611 57.039 526.408 61.836 532.312 61.836C534.157 61.836 535.879 61.385 537.396 60.565C537.437 60.278 537.437 59.745 537.437 59.212V53.841C536.453 55.645 534.526 56.916 532.312 56.916C529.114 56.916 526.531 54.333 526.531 51.135C526.531 47.937 529.114 45.354 532.312 45.354C534.526 45.354 536.453 46.625 537.437 48.47V41.746C535.92 40.926 534.157 40.434 532.312 40.434C526.408 40.434 521.611 45.231 521.611 51.135ZM527.187 51.135C527.187 53.964 529.483 56.26 532.312 56.26C535.182 56.26 537.437 53.964 537.437 51.135C537.437 48.306 535.182 46.01 532.312 46.01C529.483 46.01 527.187 48.306 527.187 51.135ZM538.093 42.115V60.155C540.84 58.474 543.013 55.071 543.013 51.135C543.013 47.199 540.84 43.796 538.093 42.115ZM563.183 50.11H571.096V50.766H563.183V62H562.527V50.766H557.607V62H556.951V33.3H574.048V33.956H563.183V38.876H574.048V39.532H563.183V44.534H571.096V45.19H563.183V50.11ZM557.607 39.532V44.534H562.527V39.532H557.607ZM562.527 45.19H557.607V50.11H562.527V45.19ZM557.607 33.956V38.876H562.527V33.956H557.607ZM590.784 42.115V60.155C593.531 58.474 595.704 55.071 595.704 51.135C595.704 47.199 593.531 43.796 590.784 42.115ZM585.003 39.778C586.848 39.778 588.57 40.229 590.128 41.008V40.27H590.784V41.377C593.08 42.648 594.843 44.944 595.704 47.322V40.27H596.36V62H595.704V54.907C594.884 57.244 593.08 59.663 590.784 60.934V62H590.128V61.262C588.57 62.041 586.848 62.492 585.003 62.492C578.73 62.492 573.646 57.408 573.646 51.135C573.646 44.862 578.73 39.778 585.003 39.778ZM585.003 61.836C586.848 61.836 588.611 61.385 590.128 60.565V53.841C589.144 55.645 587.217 56.916 585.003 56.916C581.805 56.916 579.222 54.333 579.222 51.135C579.222 47.937 581.805 45.354 585.003 45.354C587.217 45.354 589.144 46.625 590.128 48.47V41.746C588.611 40.926 586.848 40.434 585.003 40.434C579.099 40.434 574.302 45.231 574.302 51.135C574.302 57.039 579.099 61.836 585.003 61.836ZM585.003 56.26C587.873 56.26 590.128 53.964 590.128 51.135C590.128 48.306 587.873 46.01 585.003 46.01C582.174 46.01 579.878 48.306 579.878 51.135C579.878 53.964 582.174 56.26 585.003 56.26ZM611.406 45.846V46.502H610.217C607.716 46.502 605.584 48.634 605.584 51.135C605.584 53.636 607.716 55.768 610.217 55.768H611.406V56.424H610.217C607.347 56.424 604.928 54.005 604.928 51.135C604.928 48.265 607.347 45.846 610.217 45.846H611.406ZM611.406 40.926H610.217C604.6 40.926 600.008 45.518 600.008 51.135C600.008 56.752 604.6 61.344 610.217 61.344H611.406V62H610.217C604.231 62 599.352 57.121 599.352 51.135C599.352 45.149 604.231 40.27 610.217 40.27H611.406V40.926ZM616.925 40.926H613.686V40.27H616.925V33.3H617.581V40.27H622.501V33.3H623.157V40.27H626.396V40.926H623.157V45.846H626.396V46.502H623.157V62H622.501V46.502H617.581V62H616.925V46.502H613.686V45.846H616.925V40.926ZM622.501 40.926H617.581V45.846H622.501V40.926ZM628.385 46.953C628.385 42.976 631.583 39.778 635.56 39.778C638.512 39.778 641.054 41.582 642.161 44.124L641.546 44.411C640.562 42.074 638.225 40.434 635.56 40.434C631.952 40.434 629.041 43.345 629.041 46.953C629.041 50.028 631.132 52.57 634.002 53.308L635.806 53.759C636.503 53.923 636.995 54.579 636.995 55.317C636.995 56.219 636.298 56.916 635.396 56.916C634.699 56.916 634.125 56.506 633.879 55.85L634.494 55.604C634.617 55.973 634.945 56.26 635.396 56.26C635.929 56.26 636.339 55.85 636.339 55.317C636.339 54.866 636.093 54.497 635.642 54.374L633.797 53.923C630.681 53.144 628.385 50.315 628.385 46.953ZM628.795 58.187L629.41 57.9C630.394 60.237 632.69 61.836 635.396 61.836C639.004 61.836 641.915 58.925 641.915 55.317C641.915 52.242 639.824 49.7 636.954 48.962L635.15 48.511C634.412 48.306 633.961 47.691 633.961 46.953C633.961 46.051 634.658 45.354 635.56 45.354C636.257 45.354 636.831 45.805 637.036 46.42L636.462 46.666C636.339 46.297 635.97 46.01 635.56 46.01C635.027 46.01 634.617 46.42 634.617 46.953C634.617 47.404 634.863 47.773 635.314 47.896L637.159 48.347C640.316 49.126 642.571 51.955 642.571 55.317C642.571 59.294 639.373 62.492 635.396 62.492C632.444 62.492 629.902 60.729 628.795 58.187ZM668.907 47.65C668.907 43.263 665.627 39.696 661.158 39.532V55.768C665.627 55.604 668.907 52.037 668.907 47.65ZM661.158 56.424V61.344C668.62 61.18 674.483 55.153 674.483 47.65C674.483 40.188 668.62 34.12 661.158 33.956V38.876C666.037 39.04 669.563 42.935 669.563 47.65C669.563 52.365 666.037 56.26 661.158 56.424ZM654.926 62V33.3H660.83C668.784 33.3 675.139 39.737 675.139 47.65C675.139 55.563 668.784 62 660.83 62H654.926ZM660.502 55.768V39.532H655.582V55.768H660.502ZM660.502 56.424H655.582V61.344H660.502V56.424ZM660.502 38.876V33.956H655.582V38.876H660.502ZM688.384 62.492C682.111 62.492 677.027 57.408 677.027 51.135C677.027 44.862 682.111 39.778 688.384 39.778C694.657 39.778 699.741 44.862 699.741 51.135C699.741 57.408 694.657 62.492 688.384 62.492ZM688.384 61.836C694.288 61.836 699.085 57.039 699.085 51.135C699.085 45.231 694.288 40.434 688.384 40.434C682.48 40.434 677.683 45.231 677.683 51.135C677.683 57.039 682.48 61.836 688.384 61.836ZM688.384 56.916C685.186 56.916 682.603 54.333 682.603 51.135C682.603 47.937 685.186 45.354 688.384 45.354C691.582 45.354 694.165 47.937 694.165 51.135C694.165 54.333 691.582 56.916 688.384 56.916ZM688.384 56.26C691.213 56.26 693.509 53.964 693.509 51.135C693.509 48.306 691.213 46.01 688.384 46.01C685.555 46.01 683.259 48.306 683.259 51.135C683.259 53.964 685.555 56.26 688.384 56.26ZM701.491 51.135C701.491 44.862 706.575 39.778 712.848 39.778C714.693 39.778 716.415 40.229 717.973 41.008V40.27H718.629V41.377C720.925 42.648 722.688 44.944 723.549 47.322V40.27H724.205V60.155C724.205 66.428 719.162 71.512 712.848 71.512C708.953 71.512 705.509 69.503 703.418 66.51L703.992 66.182C705.96 69.011 709.199 70.856 712.848 70.856C718.834 70.856 723.549 66.1 723.549 60.155V54.907C722.729 57.285 720.884 59.663 718.547 60.934C718.137 63.722 715.8 65.936 712.848 65.936C711.003 65.936 709.322 65.034 708.256 63.722L708.83 63.394C709.732 64.501 711.249 65.28 712.848 65.28C715.308 65.28 717.317 63.599 717.85 61.344C716.333 62.041 714.611 62.492 712.848 62.492C706.575 62.492 701.491 57.408 701.491 51.135ZM702.147 51.135C702.147 57.039 706.944 61.836 712.848 61.836C714.693 61.836 716.415 61.385 717.932 60.565C717.973 60.278 717.973 59.745 717.973 59.212V53.841C716.989 55.645 715.062 56.916 712.848 56.916C709.65 56.916 707.067 54.333 707.067 51.135C707.067 47.937 709.65 45.354 712.848 45.354C715.062 45.354 716.989 46.625 717.973 48.47V41.746C716.456 40.926 714.693 40.434 712.848 40.434C706.944 40.434 702.147 45.231 702.147 51.135ZM707.723 51.135C707.723 53.964 710.019 56.26 712.848 56.26C715.718 56.26 717.973 53.964 717.973 51.135C717.973 48.306 715.718 46.01 712.848 46.01C710.019 46.01 707.723 48.306 707.723 51.135ZM718.629 42.115V60.155C721.376 58.474 723.549 55.071 723.549 51.135C723.549 47.199 721.376 43.796 718.629 42.115ZM743.719 50.11H751.632V50.766H743.719V62H743.063V50.766H738.143V62H737.487V33.3H754.584V33.956H743.719V38.876H754.584V39.532H743.719V44.534H751.632V45.19H743.719V50.11ZM738.143 39.532V44.534H743.063V39.532H738.143ZM743.063 45.19H738.143V50.11H743.063V45.19ZM738.143 33.956V38.876H743.063V33.956H738.143ZM771.32 42.115V60.155C774.067 58.474 776.24 55.071 776.24 51.135C776.24 47.199 774.067 43.796 771.32 42.115ZM765.539 39.778C767.384 39.778 769.106 40.229 770.664 41.008V40.27H771.32V41.377C773.616 42.648 775.379 44.944 776.24 47.322V40.27H776.896V62H776.24V54.907C775.42 57.244 773.616 59.663 771.32 60.934V62H770.664V61.262C769.106 62.041 767.384 62.492 765.539 62.492C759.266 62.492 754.182 57.408 754.182 51.135C754.182 44.862 759.266 39.778 765.539 39.778ZM765.539 61.836C767.384 61.836 769.147 61.385 770.664 60.565V53.841C769.68 55.645 767.753 56.916 765.539 56.916C762.341 56.916 759.758 54.333 759.758 51.135C759.758 47.937 762.341 45.354 765.539 45.354C767.753 45.354 769.68 46.625 770.664 48.47V41.746C769.147 40.926 767.384 40.434 765.539 40.434C759.635 40.434 754.838 45.231 754.838 51.135C754.838 57.039 759.635 61.836 765.539 61.836ZM765.539 56.26C768.409 56.26 770.664 53.964 770.664 51.135C770.664 48.306 768.409 46.01 765.539 46.01C762.71 46.01 760.414 48.306 760.414 51.135C760.414 53.964 762.71 56.26 765.539 56.26ZM791.942 45.846V46.502H790.753C788.252 46.502 786.12 48.634 786.12 51.135C786.12 53.636 788.252 55.768 790.753 55.768H791.942V56.424H790.753C787.883 56.424 785.464 54.005 785.464 51.135C785.464 48.265 787.883 45.846 790.753 45.846H791.942ZM791.942 40.926H790.753C785.136 40.926 780.544 45.518 780.544 51.135C780.544 56.752 785.136 61.344 790.753 61.344H791.942V62H790.753C784.767 62 779.888 57.121 779.888 51.135C779.888 45.149 784.767 40.27 790.753 40.27H791.942V40.926ZM797.461 40.926H794.222V40.27H797.461V33.3H798.117V40.27H803.037V33.3H803.693V40.27H806.932V40.926H803.693V45.846H806.932V46.502H803.693V62H803.037V46.502H798.117V62H797.461V46.502H794.222V45.846H797.461V40.926ZM803.037 40.926H798.117V45.846H803.037V40.926ZM808.921 46.953C808.921 42.976 812.119 39.778 816.096 39.778C819.048 39.778 821.59 41.582 822.697 44.124L822.082 44.411C821.098 42.074 818.761 40.434 816.096 40.434C812.488 40.434 809.577 43.345 809.577 46.953C809.577 50.028 811.668 52.57 814.538 53.308L816.342 53.759C817.039 53.923 817.531 54.579 817.531 55.317C817.531 56.219 816.834 56.916 815.932 56.916C815.235 56.916 814.661 56.506 814.415 55.85L815.03 55.604C815.153 55.973 815.481 56.26 815.932 56.26C816.465 56.26 816.875 55.85 816.875 55.317C816.875 54.866 816.629 54.497 816.178 54.374L814.333 53.923C811.217 53.144 808.921 50.315 808.921 46.953ZM809.331 58.187L809.946 57.9C810.93 60.237 813.226 61.836 815.932 61.836C819.54 61.836 822.451 58.925 822.451 55.317C822.451 52.242 820.36 49.7 817.49 48.962L815.686 48.511C814.948 48.306 814.497 47.691 814.497 46.953C814.497 46.051 815.194 45.354 816.096 45.354C816.793 45.354 817.367 45.805 817.572 46.42L816.998 46.666C816.875 46.297 816.506 46.01 816.096 46.01C815.563 46.01 815.153 46.42 815.153 46.953C815.153 47.404 815.399 47.773 815.85 47.896L817.695 48.347C820.852 49.126 823.107 51.955 823.107 55.317C823.107 59.294 819.909 62.492 815.932 62.492C812.98 62.492 810.438 60.729 809.331 58.187ZM849.443 47.65C849.443 43.263 846.163 39.696 841.694 39.532V55.768C846.163 55.604 849.443 52.037 849.443 47.65ZM841.694 56.424V61.344C849.156 61.18 855.019 55.153 855.019 47.65C855.019 40.188 849.156 34.12 841.694 33.956V38.876C846.573 39.04 850.099 42.935 850.099 47.65C850.099 52.365 846.573 56.26 841.694 56.424ZM835.462 62V33.3H841.366C849.32 33.3 855.675 39.737 855.675 47.65C855.675 55.563 849.32 62 841.366 62H835.462ZM841.038 55.768V39.532H836.118V55.768H841.038ZM841.038 56.424H836.118V61.344H841.038V56.424ZM841.038 38.876V33.956H836.118V38.876H841.038ZM868.92 62.492C862.647 62.492 857.563 57.408 857.563 51.135C857.563 44.862 862.647 39.778 868.92 39.778C875.193 39.778 880.277 44.862 880.277 51.135C880.277 57.408 875.193 62.492 868.92 62.492ZM868.92 61.836C874.824 61.836 879.621 57.039 879.621 51.135C879.621 45.231 874.824 40.434 868.92 40.434C863.016 40.434 858.219 45.231 858.219 51.135C858.219 57.039 863.016 61.836 868.92 61.836ZM868.92 56.916C865.722 56.916 863.139 54.333 863.139 51.135C863.139 47.937 865.722 45.354 868.92 45.354C872.118 45.354 874.701 47.937 874.701 51.135C874.701 54.333 872.118 56.916 868.92 56.916ZM868.92 56.26C871.749 56.26 874.045 53.964 874.045 51.135C874.045 48.306 871.749 46.01 868.92 46.01C866.091 46.01 863.795 48.306 863.795 51.135C863.795 53.964 866.091 56.26 868.92 56.26ZM882.027 51.135C882.027 44.862 887.111 39.778 893.384 39.778C895.229 39.778 896.951 40.229 898.509 41.008V40.27H899.165V41.377C901.461 42.648 903.224 44.944 904.085 47.322V40.27H904.741V60.155C904.741 66.428 899.698 71.512 893.384 71.512C889.489 71.512 886.045 69.503 883.954 66.51L884.528 66.182C886.496 69.011 889.735 70.856 893.384 70.856C899.37 70.856 904.085 66.1 904.085 60.155V54.907C903.265 57.285 901.42 59.663 899.083 60.934C898.673 63.722 896.336 65.936 893.384 65.936C891.539 65.936 889.858 65.034 888.792 63.722L889.366 63.394C890.268 64.501 891.785 65.28 893.384 65.28C895.844 65.28 897.853 63.599 898.386 61.344C896.869 62.041 895.147 62.492 893.384 62.492C887.111 62.492 882.027 57.408 882.027 51.135ZM882.683 51.135C882.683 57.039 887.48 61.836 893.384 61.836C895.229 61.836 896.951 61.385 898.468 60.565C898.509 60.278 898.509 59.745 898.509 59.212V53.841C897.525 55.645 895.598 56.916 893.384 56.916C890.186 56.916 887.603 54.333 887.603 51.135C887.603 47.937 890.186 45.354 893.384 45.354C895.598 45.354 897.525 46.625 898.509 48.47V41.746C896.992 40.926 895.229 40.434 893.384 40.434C887.48 40.434 882.683 45.231 882.683 51.135ZM888.259 51.135C888.259 53.964 890.555 56.26 893.384 56.26C896.254 56.26 898.509 53.964 898.509 51.135C898.509 48.306 896.254 46.01 893.384 46.01C890.555 46.01 888.259 48.306 888.259 51.135ZM899.165 42.115V60.155C901.912 58.474 904.085 55.071 904.085 51.135C904.085 47.199 901.912 43.796 899.165 42.115ZM924.255 50.11H932.168V50.766H924.255V62H923.599V50.766H918.679V62H918.023V33.3H935.12V33.956H924.255V38.876H935.12V39.532H924.255V44.534H932.168V45.19H924.255V50.11ZM918.679 39.532V44.534H923.599V39.532H918.679ZM923.599 45.19H918.679V50.11H923.599V45.19ZM918.679 33.956V38.876H923.599V33.956H918.679ZM951.856 42.115V60.155C954.603 58.474 956.776 55.071 956.776 51.135C956.776 47.199 954.603 43.796 951.856 42.115ZM946.075 39.778C947.92 39.778 949.642 40.229 951.2 41.008V40.27H951.856V41.377C954.152 42.648 955.915 44.944 956.776 47.322V40.27H957.432V62H956.776V54.907C955.956 57.244 954.152 59.663 951.856 60.934V62H951.2V61.262C949.642 62.041 947.92 62.492 946.075 62.492C939.802 62.492 934.718 57.408 934.718 51.135C934.718 44.862 939.802 39.778 946.075 39.778ZM946.075 61.836C947.92 61.836 949.683 61.385 951.2 60.565V53.841C950.216 55.645 948.289 56.916 946.075 56.916C942.877 56.916 940.294 54.333 940.294 51.135C940.294 47.937 942.877 45.354 946.075 45.354C948.289 45.354 950.216 46.625 951.2 48.47V41.746C949.683 40.926 947.92 40.434 946.075 40.434C940.171 40.434 935.374 45.231 935.374 51.135C935.374 57.039 940.171 61.836 946.075 61.836ZM946.075 56.26C948.945 56.26 951.2 53.964 951.2 51.135C951.2 48.306 948.945 46.01 946.075 46.01C943.246 46.01 940.95 48.306 940.95 51.135C940.95 53.964 943.246 56.26 946.075 56.26ZM972.478 45.846V46.502H971.289C968.788 46.502 966.656 48.634 966.656 51.135C966.656 53.636 968.788 55.768 971.289 55.768H972.478V56.424H971.289C968.419 56.424 966 54.005 966 51.135C966 48.265 968.419 45.846 971.289 45.846H972.478ZM972.478 40.926H971.289C965.672 40.926 961.08 45.518 961.08 51.135C961.08 56.752 965.672 61.344 971.289 61.344H972.478V62H971.289C965.303 62 960.424 57.121 960.424 51.135C960.424 45.149 965.303 40.27 971.289 40.27H972.478V40.926ZM977.997 40.926H974.758V40.27H977.997V33.3H978.653V40.27H983.573V33.3H984.229V40.27H987.468V40.926H984.229V45.846H987.468V46.502H984.229V62H983.573V46.502H978.653V62H977.997V46.502H974.758V45.846H977.997V40.926ZM983.573 40.926H978.653V45.846H983.573V40.926ZM989.457 46.953C989.457 42.976 992.655 39.778 996.632 39.778C999.584 39.778 1002.13 41.582 1003.23 44.124L1002.62 44.411C1001.63 42.074 999.297 40.434 996.632 40.434C993.024 40.434 990.113 43.345 990.113 46.953C990.113 50.028 992.204 52.57 995.074 53.308L996.878 53.759C997.575 53.923 998.067 54.579 998.067 55.317C998.067 56.219 997.37 56.916 996.468 56.916C995.771 56.916 995.197 56.506 994.951 55.85L995.566 55.604C995.689 55.973 996.017 56.26 996.468 56.26C997.001 56.26 997.411 55.85 997.411 55.317C997.411 54.866 997.165 54.497 996.714 54.374L994.869 53.923C991.753 53.144 989.457 50.315 989.457 46.953ZM989.867 58.187L990.482 57.9C991.466 60.237 993.762 61.836 996.468 61.836C1000.08 61.836 1002.99 58.925 1002.99 55.317C1002.99 52.242 1000.9 49.7 998.026 48.962L996.222 48.511C995.484 48.306 995.033 47.691 995.033 46.953C995.033 46.051 995.73 45.354 996.632 45.354C997.329 45.354 997.903 45.805 998.108 46.42L997.534 46.666C997.411 46.297 997.042 46.01 996.632 46.01C996.099 46.01 995.689 46.42 995.689 46.953C995.689 47.404 995.935 47.773 996.386 47.896L998.231 48.347C1001.39 49.126 1003.64 51.955 1003.64 55.317C1003.64 59.294 1000.45 62.492 996.468 62.492C993.516 62.492 990.974 60.729 989.867 58.187ZM1029.98 47.65C1029.98 43.263 1026.7 39.696 1022.23 39.532V55.768C1026.7 55.604 1029.98 52.037 1029.98 47.65ZM1022.23 56.424V61.344C1029.69 61.18 1035.56 55.153 1035.56 47.65C1035.56 40.188 1029.69 34.12 1022.23 33.956V38.876C1027.11 39.04 1030.64 42.935 1030.64 47.65C1030.64 52.365 1027.11 56.26 1022.23 56.424ZM1016 62V33.3H1021.9C1029.86 33.3 1036.21 39.737 1036.21 47.65C1036.21 55.563 1029.86 62 1021.9 62H1016ZM1021.57 55.768V39.532H1016.65V55.768H1021.57ZM1021.57 56.424H1016.65V61.344H1021.57V56.424ZM1021.57 38.876V33.956H1016.65V38.876H1021.57ZM1049.46 62.492C1043.18 62.492 1038.1 57.408 1038.1 51.135C1038.1 44.862 1043.18 39.778 1049.46 39.778C1055.73 39.778 1060.81 44.862 1060.81 51.135C1060.81 57.408 1055.73 62.492 1049.46 62.492ZM1049.46 61.836C1055.36 61.836 1060.16 57.039 1060.16 51.135C1060.16 45.231 1055.36 40.434 1049.46 40.434C1043.55 40.434 1038.75 45.231 1038.75 51.135C1038.75 57.039 1043.55 61.836 1049.46 61.836ZM1049.46 56.916C1046.26 56.916 1043.67 54.333 1043.67 51.135C1043.67 47.937 1046.26 45.354 1049.46 45.354C1052.65 45.354 1055.24 47.937 1055.24 51.135C1055.24 54.333 1052.65 56.916 1049.46 56.916ZM1049.46 56.26C1052.28 56.26 1054.58 53.964 1054.58 51.135C1054.58 48.306 1052.28 46.01 1049.46 46.01C1046.63 46.01 1044.33 48.306 1044.33 51.135C1044.33 53.964 1046.63 56.26 1049.46 56.26ZM1062.56 51.135C1062.56 44.862 1067.65 39.778 1073.92 39.778C1075.77 39.778 1077.49 40.229 1079.05 41.008V40.27H1079.7V41.377C1082 42.648 1083.76 44.944 1084.62 47.322V40.27H1085.28V60.155C1085.28 66.428 1080.23 71.512 1073.92 71.512C1070.03 71.512 1066.58 69.503 1064.49 66.51L1065.06 66.182C1067.03 69.011 1070.27 70.856 1073.92 70.856C1079.91 70.856 1084.62 66.1 1084.62 60.155V54.907C1083.8 57.285 1081.96 59.663 1079.62 60.934C1079.21 63.722 1076.87 65.936 1073.92 65.936C1072.08 65.936 1070.39 65.034 1069.33 63.722L1069.9 63.394C1070.8 64.501 1072.32 65.28 1073.92 65.28C1076.38 65.28 1078.39 63.599 1078.92 61.344C1077.41 62.041 1075.68 62.492 1073.92 62.492C1067.65 62.492 1062.56 57.408 1062.56 51.135ZM1063.22 51.135C1063.22 57.039 1068.02 61.836 1073.92 61.836C1075.77 61.836 1077.49 61.385 1079 60.565C1079.05 60.278 1079.05 59.745 1079.05 59.212V53.841C1078.06 55.645 1076.13 56.916 1073.92 56.916C1070.72 56.916 1068.14 54.333 1068.14 51.135C1068.14 47.937 1070.72 45.354 1073.92 45.354C1076.13 45.354 1078.06 46.625 1079.05 48.47V41.746C1077.53 40.926 1075.77 40.434 1073.92 40.434C1068.02 40.434 1063.22 45.231 1063.22 51.135ZM1068.8 51.135C1068.8 53.964 1071.09 56.26 1073.92 56.26C1076.79 56.26 1079.05 53.964 1079.05 51.135C1079.05 48.306 1076.79 46.01 1073.92 46.01C1071.09 46.01 1068.8 48.306 1068.8 51.135ZM1079.7 42.115V60.155C1082.45 58.474 1084.62 55.071 1084.62 51.135C1084.62 47.199 1082.45 43.796 1079.7 42.115ZM1104.79 50.11H1112.7V50.766H1104.79V62H1104.14V50.766H1099.22V62H1098.56V33.3H1115.66V33.956H1104.79V38.876H1115.66V39.532H1104.79V44.534H1112.7V45.19H1104.79V50.11ZM1099.22 39.532V44.534H1104.14V39.532H1099.22ZM1104.14 45.19H1099.22V50.11H1104.14V45.19ZM1099.22 33.956V38.876H1104.14V33.956H1099.22ZM1132.39 42.115V60.155C1135.14 58.474 1137.31 55.071 1137.31 51.135C1137.31 47.199 1135.14 43.796 1132.39 42.115ZM1126.61 39.778C1128.46 39.778 1130.18 40.229 1131.74 41.008V40.27H1132.39V41.377C1134.69 42.648 1136.45 44.944 1137.31 47.322V40.27H1137.97V62H1137.31V54.907C1136.49 57.244 1134.69 59.663 1132.39 60.934V62H1131.74V61.262C1130.18 62.041 1128.46 62.492 1126.61 62.492C1120.34 62.492 1115.25 57.408 1115.25 51.135C1115.25 44.862 1120.34 39.778 1126.61 39.778ZM1126.61 61.836C1128.46 61.836 1130.22 61.385 1131.74 60.565V53.841C1130.75 55.645 1128.83 56.916 1126.61 56.916C1123.41 56.916 1120.83 54.333 1120.83 51.135C1120.83 47.937 1123.41 45.354 1126.61 45.354C1128.83 45.354 1130.75 46.625 1131.74 48.47V41.746C1130.22 40.926 1128.46 40.434 1126.61 40.434C1120.71 40.434 1115.91 45.231 1115.91 51.135C1115.91 57.039 1120.71 61.836 1126.61 61.836ZM1126.61 56.26C1129.48 56.26 1131.74 53.964 1131.74 51.135C1131.74 48.306 1129.48 46.01 1126.61 46.01C1123.78 46.01 1121.49 48.306 1121.49 51.135C1121.49 53.964 1123.78 56.26 1126.61 56.26ZM1153.01 45.846V46.502H1151.83C1149.32 46.502 1147.19 48.634 1147.19 51.135C1147.19 53.636 1149.32 55.768 1151.83 55.768H1153.01V56.424H1151.83C1148.96 56.424 1146.54 54.005 1146.54 51.135C1146.54 48.265 1148.96 45.846 1151.83 45.846H1153.01ZM1153.01 40.926H1151.83C1146.21 40.926 1141.62 45.518 1141.62 51.135C1141.62 56.752 1146.21 61.344 1151.83 61.344H1153.01V62H1151.83C1145.84 62 1140.96 57.121 1140.96 51.135C1140.96 45.149 1145.84 40.27 1151.83 40.27H1153.01V40.926ZM1158.53 40.926H1155.29V40.27H1158.53V33.3H1159.19V40.27H1164.11V33.3H1164.77V40.27H1168V40.926H1164.77V45.846H1168V46.502H1164.77V62H1164.11V46.502H1159.19V62H1158.53V46.502H1155.29V45.846H1158.53V40.926ZM1164.11 40.926H1159.19V45.846H1164.11V40.926ZM1169.99 46.953C1169.99 42.976 1173.19 39.778 1177.17 39.778C1180.12 39.778 1182.66 41.582 1183.77 44.124L1183.15 44.411C1182.17 42.074 1179.83 40.434 1177.17 40.434C1173.56 40.434 1170.65 43.345 1170.65 46.953C1170.65 50.028 1172.74 52.57 1175.61 53.308L1177.41 53.759C1178.11 53.923 1178.6 54.579 1178.6 55.317C1178.6 56.219 1177.91 56.916 1177 56.916C1176.31 56.916 1175.73 56.506 1175.49 55.85L1176.1 55.604C1176.23 55.973 1176.55 56.26 1177 56.26C1177.54 56.26 1177.95 55.85 1177.95 55.317C1177.95 54.866 1177.7 54.497 1177.25 54.374L1175.41 53.923C1172.29 53.144 1169.99 50.315 1169.99 46.953ZM1170.4 58.187L1171.02 57.9C1172 60.237 1174.3 61.836 1177 61.836C1180.61 61.836 1183.52 58.925 1183.52 55.317C1183.52 52.242 1181.43 49.7 1178.56 48.962L1176.76 48.511C1176.02 48.306 1175.57 47.691 1175.57 46.953C1175.57 46.051 1176.27 45.354 1177.17 45.354C1177.87 45.354 1178.44 45.805 1178.64 46.42L1178.07 46.666C1177.95 46.297 1177.58 46.01 1177.17 46.01C1176.64 46.01 1176.23 46.42 1176.23 46.953C1176.23 47.404 1176.47 47.773 1176.92 47.896L1178.77 48.347C1181.92 49.126 1184.18 51.955 1184.18 55.317C1184.18 59.294 1180.98 62.492 1177 62.492C1174.05 62.492 1171.51 60.729 1170.4 58.187ZM1210.52 47.65C1210.52 43.263 1207.24 39.696 1202.77 39.532V55.768C1207.24 55.604 1210.52 52.037 1210.52 47.65ZM1202.77 56.424V61.344C1210.23 61.18 1216.09 55.153 1216.09 47.65C1216.09 40.188 1210.23 34.12 1202.77 33.956V38.876C1207.65 39.04 1211.17 42.935 1211.17 47.65C1211.17 52.365 1207.65 56.26 1202.77 56.424ZM1196.53 62V33.3H1202.44C1210.39 33.3 1216.75 39.737 1216.75 47.65C1216.75 55.563 1210.39 62 1202.44 62H1196.53ZM1202.11 55.768V39.532H1197.19V55.768H1202.11ZM1202.11 56.424H1197.19V61.344H1202.11V56.424ZM1202.11 38.876V33.956H1197.19V38.876H1202.11ZM1229.99 62.492C1223.72 62.492 1218.63 57.408 1218.63 51.135C1218.63 44.862 1223.72 39.778 1229.99 39.778C1236.26 39.778 1241.35 44.862 1241.35 51.135C1241.35 57.408 1236.26 62.492 1229.99 62.492ZM1229.99 61.836C1235.9 61.836 1240.69 57.039 1240.69 51.135C1240.69 45.231 1235.9 40.434 1229.99 40.434C1224.09 40.434 1219.29 45.231 1219.29 51.135C1219.29 57.039 1224.09 61.836 1229.99 61.836ZM1229.99 56.916C1226.79 56.916 1224.21 54.333 1224.21 51.135C1224.21 47.937 1226.79 45.354 1229.99 45.354C1233.19 45.354 1235.77 47.937 1235.77 51.135C1235.77 54.333 1233.19 56.916 1229.99 56.916ZM1229.99 56.26C1232.82 56.26 1235.12 53.964 1235.12 51.135C1235.12 48.306 1232.82 46.01 1229.99 46.01C1227.16 46.01 1224.87 48.306 1224.87 51.135C1224.87 53.964 1227.16 56.26 1229.99 56.26ZM1243.1 51.135C1243.1 44.862 1248.18 39.778 1254.46 39.778C1256.3 39.778 1258.02 40.229 1259.58 41.008V40.27H1260.24V41.377C1262.53 42.648 1264.3 44.944 1265.16 47.322V40.27H1265.81V60.155C1265.81 66.428 1260.77 71.512 1254.46 71.512C1250.56 71.512 1247.12 69.503 1245.03 66.51L1245.6 66.182C1247.57 69.011 1250.81 70.856 1254.46 70.856C1260.44 70.856 1265.16 66.1 1265.16 60.155V54.907C1264.34 57.285 1262.49 59.663 1260.16 60.934C1259.75 63.722 1257.41 65.936 1254.46 65.936C1252.61 65.936 1250.93 65.034 1249.86 63.722L1250.44 63.394C1251.34 64.501 1252.86 65.28 1254.46 65.28C1256.92 65.28 1258.93 63.599 1259.46 61.344C1257.94 62.041 1256.22 62.492 1254.46 62.492C1248.18 62.492 1243.1 57.408 1243.1 51.135ZM1243.76 51.135C1243.76 57.039 1248.55 61.836 1254.46 61.836C1256.3 61.836 1258.02 61.385 1259.54 60.565C1259.58 60.278 1259.58 59.745 1259.58 59.212V53.841C1258.6 55.645 1256.67 56.916 1254.46 56.916C1251.26 56.916 1248.68 54.333 1248.68 51.135C1248.68 47.937 1251.26 45.354 1254.46 45.354C1256.67 45.354 1258.6 46.625 1259.58 48.47V41.746C1258.06 40.926 1256.3 40.434 1254.46 40.434C1248.55 40.434 1243.76 45.231 1243.76 51.135ZM1249.33 51.135C1249.33 53.964 1251.63 56.26 1254.46 56.26C1257.33 56.26 1259.58 53.964 1259.58 51.135C1259.58 48.306 1257.33 46.01 1254.46 46.01C1251.63 46.01 1249.33 48.306 1249.33 51.135ZM1260.24 42.115V60.155C1262.98 58.474 1265.16 55.071 1265.16 51.135C1265.16 47.199 1262.98 43.796 1260.24 42.115ZM1285.33 50.11H1293.24V50.766H1285.33V62H1284.67V50.766H1279.75V62H1279.1V33.3H1296.19V33.956H1285.33V38.876H1296.19V39.532H1285.33V44.534H1293.24V45.19H1285.33V50.11ZM1279.75 39.532V44.534H1284.67V39.532H1279.75ZM1284.67 45.19H1279.75V50.11H1284.67V45.19ZM1279.75 33.956V38.876H1284.67V33.956H1279.75ZM1312.93 42.115V60.155C1315.68 58.474 1317.85 55.071 1317.85 51.135C1317.85 47.199 1315.68 43.796 1312.93 42.115ZM1307.15 39.778C1308.99 39.778 1310.71 40.229 1312.27 41.008V40.27H1312.93V41.377C1315.22 42.648 1316.99 44.944 1317.85 47.322V40.27H1318.5V62H1317.85V54.907C1317.03 57.244 1315.22 59.663 1312.93 60.934V62H1312.27V61.262C1310.71 62.041 1308.99 62.492 1307.15 62.492C1300.87 62.492 1295.79 57.408 1295.79 51.135C1295.79 44.862 1300.87 39.778 1307.15 39.778ZM1307.15 61.836C1308.99 61.836 1310.76 61.385 1312.27 60.565V53.841C1311.29 55.645 1309.36 56.916 1307.15 56.916C1303.95 56.916 1301.37 54.333 1301.37 51.135C1301.37 47.937 1303.95 45.354 1307.15 45.354C1309.36 45.354 1311.29 46.625 1312.27 48.47V41.746C1310.76 40.926 1308.99 40.434 1307.15 40.434C1301.24 40.434 1296.45 45.231 1296.45 51.135C1296.45 57.039 1301.24 61.836 1307.15 61.836ZM1307.15 56.26C1310.02 56.26 1312.27 53.964 1312.27 51.135C1312.27 48.306 1310.02 46.01 1307.15 46.01C1304.32 46.01 1302.02 48.306 1302.02 51.135C1302.02 53.964 1304.32 56.26 1307.15 56.26ZM1333.55 45.846V46.502H1332.36C1329.86 46.502 1327.73 48.634 1327.73 51.135C1327.73 53.636 1329.86 55.768 1332.36 55.768H1333.55V56.424H1332.36C1329.49 56.424 1327.07 54.005 1327.07 51.135C1327.07 48.265 1329.49 45.846 1332.36 45.846H1333.55ZM1333.55 40.926H1332.36C1326.74 40.926 1322.15 45.518 1322.15 51.135C1322.15 56.752 1326.74 61.344 1332.36 61.344H1333.55V62H1332.36C1326.38 62 1321.5 57.121 1321.5 51.135C1321.5 45.149 1326.38 40.27 1332.36 40.27H1333.55V40.926ZM1339.07 40.926H1335.83V40.27H1339.07V33.3H1339.73V40.27H1344.65V33.3H1345.3V40.27H1348.54V40.926H1345.3V45.846H1348.54V46.502H1345.3V62H1344.65V46.502H1339.73V62H1339.07V46.502H1335.83V45.846H1339.07V40.926ZM1344.65 40.926H1339.73V45.846H1344.65V40.926ZM1350.53 46.953C1350.53 42.976 1353.73 39.778 1357.7 39.778C1360.66 39.778 1363.2 41.582 1364.31 44.124L1363.69 44.411C1362.71 42.074 1360.37 40.434 1357.7 40.434C1354.1 40.434 1351.19 43.345 1351.19 46.953C1351.19 50.028 1353.28 52.57 1356.15 53.308L1357.95 53.759C1358.65 53.923 1359.14 54.579 1359.14 55.317C1359.14 56.219 1358.44 56.916 1357.54 56.916C1356.84 56.916 1356.27 56.506 1356.02 55.85L1356.64 55.604C1356.76 55.973 1357.09 56.26 1357.54 56.26C1358.07 56.26 1358.48 55.85 1358.48 55.317C1358.48 54.866 1358.24 54.497 1357.79 54.374L1355.94 53.923C1352.83 53.144 1350.53 50.315 1350.53 46.953ZM1350.94 58.187L1351.55 57.9C1352.54 60.237 1354.83 61.836 1357.54 61.836C1361.15 61.836 1364.06 58.925 1364.06 55.317C1364.06 52.242 1361.97 49.7 1359.1 48.962L1357.29 48.511C1356.56 48.306 1356.11 47.691 1356.11 46.953C1356.11 46.051 1356.8 45.354 1357.7 45.354C1358.4 45.354 1358.98 45.805 1359.18 46.42L1358.61 46.666C1358.48 46.297 1358.11 46.01 1357.7 46.01C1357.17 46.01 1356.76 46.42 1356.76 46.953C1356.76 47.404 1357.01 47.773 1357.46 47.896L1359.3 48.347C1362.46 49.126 1364.72 51.955 1364.72 55.317C1364.72 59.294 1361.52 62.492 1357.54 62.492C1354.59 62.492 1352.05 60.729 1350.94 58.187ZM1391.05 47.65C1391.05 43.263 1387.77 39.696 1383.3 39.532V55.768C1387.77 55.604 1391.05 52.037 1391.05 47.65ZM1383.3 56.424V61.344C1390.76 61.18 1396.63 55.153 1396.63 47.65C1396.63 40.188 1390.76 34.12 1383.3 33.956V38.876C1388.18 39.04 1391.71 42.935 1391.71 47.65C1391.71 52.365 1388.18 56.26 1383.3 56.424ZM1377.07 62V33.3H1382.97C1390.93 33.3 1397.28 39.737 1397.28 47.65C1397.28 55.563 1390.93 62 1382.97 62H1377.07ZM1382.65 55.768V39.532H1377.73V55.768H1382.65ZM1382.65 56.424H1377.73V61.344H1382.65V56.424ZM1382.65 38.876V33.956H1377.73V38.876H1382.65ZM1410.53 62.492C1404.26 62.492 1399.17 57.408 1399.17 51.135C1399.17 44.862 1404.26 39.778 1410.53 39.778C1416.8 39.778 1421.89 44.862 1421.89 51.135C1421.89 57.408 1416.8 62.492 1410.53 62.492ZM1410.53 61.836C1416.43 61.836 1421.23 57.039 1421.23 51.135C1421.23 45.231 1416.43 40.434 1410.53 40.434C1404.62 40.434 1399.83 45.231 1399.83 51.135C1399.83 57.039 1404.62 61.836 1410.53 61.836ZM1410.53 56.916C1407.33 56.916 1404.75 54.333 1404.75 51.135C1404.75 47.937 1407.33 45.354 1410.53 45.354C1413.73 45.354 1416.31 47.937 1416.31 51.135C1416.31 54.333 1413.73 56.916 1410.53 56.916ZM1410.53 56.26C1413.36 56.26 1415.65 53.964 1415.65 51.135C1415.65 48.306 1413.36 46.01 1410.53 46.01C1407.7 46.01 1405.4 48.306 1405.4 51.135C1405.4 53.964 1407.7 56.26 1410.53 56.26ZM1423.64 51.135C1423.64 44.862 1428.72 39.778 1434.99 39.778C1436.84 39.778 1438.56 40.229 1440.12 41.008V40.27H1440.77V41.377C1443.07 42.648 1444.83 44.944 1445.69 47.322V40.27H1446.35V60.155C1446.35 66.428 1441.31 71.512 1434.99 71.512C1431.1 71.512 1427.65 69.503 1425.56 66.51L1426.14 66.182C1428.1 69.011 1431.34 70.856 1434.99 70.856C1440.98 70.856 1445.69 66.1 1445.69 60.155V54.907C1444.87 57.285 1443.03 59.663 1440.69 60.934C1440.28 63.722 1437.94 65.936 1434.99 65.936C1433.15 65.936 1431.47 65.034 1430.4 63.722L1430.97 63.394C1431.88 64.501 1433.39 65.28 1434.99 65.28C1437.45 65.28 1439.46 63.599 1439.99 61.344C1438.48 62.041 1436.76 62.492 1434.99 62.492C1428.72 62.492 1423.64 57.408 1423.64 51.135ZM1424.29 51.135C1424.29 57.039 1429.09 61.836 1434.99 61.836C1436.84 61.836 1438.56 61.385 1440.08 60.565C1440.12 60.278 1440.12 59.745 1440.12 59.212V53.841C1439.13 55.645 1437.21 56.916 1434.99 56.916C1431.79 56.916 1429.21 54.333 1429.21 51.135C1429.21 47.937 1431.79 45.354 1434.99 45.354C1437.21 45.354 1439.13 46.625 1440.12 48.47V41.746C1438.6 40.926 1436.84 40.434 1434.99 40.434C1429.09 40.434 1424.29 45.231 1424.29 51.135ZM1429.87 51.135C1429.87 53.964 1432.16 56.26 1434.99 56.26C1437.86 56.26 1440.12 53.964 1440.12 51.135C1440.12 48.306 1437.86 46.01 1434.99 46.01C1432.16 46.01 1429.87 48.306 1429.87 51.135ZM1440.77 42.115V60.155C1443.52 58.474 1445.69 55.071 1445.69 51.135C1445.69 47.199 1443.52 43.796 1440.77 42.115ZM1465.86 50.11H1473.78V50.766H1465.86V62H1465.21V50.766H1460.29V62H1459.63V33.3H1476.73V33.956H1465.86V38.876H1476.73V39.532H1465.86V44.534H1473.78V45.19H1465.86V50.11ZM1460.29 39.532V44.534H1465.21V39.532H1460.29ZM1465.21 45.19H1460.29V50.11H1465.21V45.19ZM1460.29 33.956V38.876H1465.21V33.956H1460.29ZM1493.46 42.115V60.155C1496.21 58.474 1498.38 55.071 1498.38 51.135C1498.38 47.199 1496.21 43.796 1493.46 42.115ZM1487.68 39.778C1489.53 39.778 1491.25 40.229 1492.81 41.008V40.27H1493.46V41.377C1495.76 42.648 1497.52 44.944 1498.38 47.322V40.27H1499.04V62H1498.38V54.907C1497.56 57.244 1495.76 59.663 1493.46 60.934V62H1492.81V61.262C1491.25 62.041 1489.53 62.492 1487.68 62.492C1481.41 62.492 1476.33 57.408 1476.33 51.135C1476.33 44.862 1481.41 39.778 1487.68 39.778ZM1487.68 61.836C1489.53 61.836 1491.29 61.385 1492.81 60.565V53.841C1491.82 55.645 1489.9 56.916 1487.68 56.916C1484.49 56.916 1481.9 54.333 1481.9 51.135C1481.9 47.937 1484.49 45.354 1487.68 45.354C1489.9 45.354 1491.82 46.625 1492.81 48.47V41.746C1491.29 40.926 1489.53 40.434 1487.68 40.434C1481.78 40.434 1476.98 45.231 1476.98 51.135C1476.98 57.039 1481.78 61.836 1487.68 61.836ZM1487.68 56.26C1490.55 56.26 1492.81 53.964 1492.81 51.135C1492.81 48.306 1490.55 46.01 1487.68 46.01C1484.85 46.01 1482.56 48.306 1482.56 51.135C1482.56 53.964 1484.85 56.26 1487.68 56.26ZM1514.09 45.846V46.502H1512.9C1510.4 46.502 1508.26 48.634 1508.26 51.135C1508.26 53.636 1510.4 55.768 1512.9 55.768H1514.09V56.424H1512.9C1510.03 56.424 1507.61 54.005 1507.61 51.135C1507.61 48.265 1510.03 45.846 1512.9 45.846H1514.09ZM1514.09 40.926H1512.9C1507.28 40.926 1502.69 45.518 1502.69 51.135C1502.69 56.752 1507.28 61.344 1512.9 61.344H1514.09V62H1512.9C1506.91 62 1502.03 57.121 1502.03 51.135C1502.03 45.149 1506.91 40.27 1512.9 40.27H1514.09V40.926ZM1519.61 40.926H1516.37V40.27H1519.61V33.3H1520.26V40.27H1525.18V33.3H1525.84V40.27H1529.08V40.926H1525.84V45.846H1529.08V46.502H1525.84V62H1525.18V46.502H1520.26V62H1519.61V46.502H1516.37V45.846H1519.61V40.926ZM1525.18 40.926H1520.26V45.846H1525.18V40.926ZM1531.07 46.953C1531.07 42.976 1534.26 39.778 1538.24 39.778C1541.19 39.778 1543.73 41.582 1544.84 44.124L1544.23 44.411C1543.24 42.074 1540.91 40.434 1538.24 40.434C1534.63 40.434 1531.72 43.345 1531.72 46.953C1531.72 50.028 1533.81 52.57 1536.68 53.308L1538.49 53.759C1539.18 53.923 1539.68 54.579 1539.68 55.317C1539.68 56.219 1538.98 56.916 1538.08 56.916C1537.38 56.916 1536.81 56.506 1536.56 55.85L1537.17 55.604C1537.3 55.973 1537.63 56.26 1538.08 56.26C1538.61 56.26 1539.02 55.85 1539.02 55.317C1539.02 54.866 1538.77 54.497 1538.32 54.374L1536.48 53.923C1533.36 53.144 1531.07 50.315 1531.07 46.953ZM1531.48 58.187L1532.09 57.9C1533.07 60.237 1535.37 61.836 1538.08 61.836C1541.68 61.836 1544.6 58.925 1544.6 55.317C1544.6 52.242 1542.5 49.7 1539.63 48.962L1537.83 48.511C1537.09 48.306 1536.64 47.691 1536.64 46.953C1536.64 46.051 1537.34 45.354 1538.24 45.354C1538.94 45.354 1539.51 45.805 1539.72 46.42L1539.14 46.666C1539.02 46.297 1538.65 46.01 1538.24 46.01C1537.71 46.01 1537.3 46.42 1537.3 46.953C1537.3 47.404 1537.54 47.773 1537.99 47.896L1539.84 48.347C1543 49.126 1545.25 51.955 1545.25 55.317C1545.25 59.294 1542.05 62.492 1538.08 62.492C1535.12 62.492 1532.58 60.729 1531.48 58.187ZM1571.59 47.65C1571.59 43.263 1568.31 39.696 1563.84 39.532V55.768C1568.31 55.604 1571.59 52.037 1571.59 47.65ZM1563.84 56.424V61.344C1571.3 61.18 1577.16 55.153 1577.16 47.65C1577.16 40.188 1571.3 34.12 1563.84 33.956V38.876C1568.72 39.04 1572.24 42.935 1572.24 47.65C1572.24 52.365 1568.72 56.26 1563.84 56.424ZM1557.61 62V33.3H1563.51C1571.46 33.3 1577.82 39.737 1577.82 47.65C1577.82 55.563 1571.46 62 1563.51 62H1557.61ZM1563.18 55.768V39.532H1558.26V55.768H1563.18ZM1563.18 56.424H1558.26V61.344H1563.18V56.424ZM1563.18 38.876V33.956H1558.26V38.876H1563.18ZM1591.06 62.492C1584.79 62.492 1579.71 57.408 1579.71 51.135C1579.71 44.862 1584.79 39.778 1591.06 39.778C1597.34 39.778 1602.42 44.862 1602.42 51.135C1602.42 57.408 1597.34 62.492 1591.06 62.492ZM1591.06 61.836C1596.97 61.836 1601.77 57.039 1601.77 51.135C1601.77 45.231 1596.97 40.434 1591.06 40.434C1585.16 40.434 1580.36 45.231 1580.36 51.135C1580.36 57.039 1585.16 61.836 1591.06 61.836ZM1591.06 56.916C1587.87 56.916 1585.28 54.333 1585.28 51.135C1585.28 47.937 1587.87 45.354 1591.06 45.354C1594.26 45.354 1596.85 47.937 1596.85 51.135C1596.85 54.333 1594.26 56.916 1591.06 56.916ZM1591.06 56.26C1593.89 56.26 1596.19 53.964 1596.19 51.135C1596.19 48.306 1593.89 46.01 1591.06 46.01C1588.24 46.01 1585.94 48.306 1585.94 51.135C1585.94 53.964 1588.24 56.26 1591.06 56.26ZM1604.17 51.135C1604.17 44.862 1609.26 39.778 1615.53 39.778C1617.37 39.778 1619.1 40.229 1620.65 41.008V40.27H1621.31V41.377C1623.61 42.648 1625.37 44.944 1626.23 47.322V40.27H1626.89V60.155C1626.89 66.428 1621.84 71.512 1615.53 71.512C1611.63 71.512 1608.19 69.503 1606.1 66.51L1606.67 66.182C1608.64 69.011 1611.88 70.856 1615.53 70.856C1621.52 70.856 1626.23 66.1 1626.23 60.155V54.907C1625.41 57.285 1623.57 59.663 1621.23 60.934C1620.82 63.722 1618.48 65.936 1615.53 65.936C1613.68 65.936 1612 65.034 1610.94 63.722L1611.51 63.394C1612.41 64.501 1613.93 65.28 1615.53 65.28C1617.99 65.28 1620 63.599 1620.53 61.344C1619.01 62.041 1617.29 62.492 1615.53 62.492C1609.26 62.492 1604.17 57.408 1604.17 51.135ZM1604.83 51.135C1604.83 57.039 1609.63 61.836 1615.53 61.836C1617.37 61.836 1619.1 61.385 1620.61 60.565C1620.65 60.278 1620.65 59.745 1620.65 59.212V53.841C1619.67 55.645 1617.74 56.916 1615.53 56.916C1612.33 56.916 1609.75 54.333 1609.75 51.135C1609.75 47.937 1612.33 45.354 1615.53 45.354C1617.74 45.354 1619.67 46.625 1620.65 48.47V41.746C1619.14 40.926 1617.37 40.434 1615.53 40.434C1609.63 40.434 1604.83 45.231 1604.83 51.135ZM1610.4 51.135C1610.4 53.964 1612.7 56.26 1615.53 56.26C1618.4 56.26 1620.65 53.964 1620.65 51.135C1620.65 48.306 1618.4 46.01 1615.53 46.01C1612.7 46.01 1610.4 48.306 1610.4 51.135ZM1621.31 42.115V60.155C1624.06 58.474 1626.23 55.071 1626.23 51.135C1626.23 47.199 1624.06 43.796 1621.31 42.115ZM1646.4 50.11H1654.31V50.766H1646.4V62H1645.74V50.766H1640.82V62H1640.17V33.3H1657.26V33.956H1646.4V38.876H1657.26V39.532H1646.4V44.534H1654.31V45.19H1646.4V50.11ZM1640.82 39.532V44.534H1645.74V39.532H1640.82ZM1645.74 45.19H1640.82V50.11H1645.74V45.19ZM1640.82 33.956V38.876H1645.74V33.956H1640.82ZM1674 42.115V60.155C1676.75 58.474 1678.92 55.071 1678.92 51.135C1678.92 47.199 1676.75 43.796 1674 42.115ZM1668.22 39.778C1670.06 39.778 1671.79 40.229 1673.34 41.008V40.27H1674V41.377C1676.3 42.648 1678.06 44.944 1678.92 47.322V40.27H1679.58V62H1678.92V54.907C1678.1 57.244 1676.3 59.663 1674 60.934V62H1673.34V61.262C1671.79 62.041 1670.06 62.492 1668.22 62.492C1661.95 62.492 1656.86 57.408 1656.86 51.135C1656.86 44.862 1661.95 39.778 1668.22 39.778ZM1668.22 61.836C1670.06 61.836 1671.83 61.385 1673.34 60.565V53.841C1672.36 55.645 1670.43 56.916 1668.22 56.916C1665.02 56.916 1662.44 54.333 1662.44 51.135C1662.44 47.937 1665.02 45.354 1668.22 45.354C1670.43 45.354 1672.36 46.625 1673.34 48.47V41.746C1671.83 40.926 1670.06 40.434 1668.22 40.434C1662.32 40.434 1657.52 45.231 1657.52 51.135C1657.52 57.039 1662.32 61.836 1668.22 61.836ZM1668.22 56.26C1671.09 56.26 1673.34 53.964 1673.34 51.135C1673.34 48.306 1671.09 46.01 1668.22 46.01C1665.39 46.01 1663.09 48.306 1663.09 51.135C1663.09 53.964 1665.39 56.26 1668.22 56.26ZM1694.62 45.846V46.502H1693.43C1690.93 46.502 1688.8 48.634 1688.8 51.135C1688.8 53.636 1690.93 55.768 1693.43 55.768H1694.62V56.424H1693.43C1690.56 56.424 1688.14 54.005 1688.14 51.135C1688.14 48.265 1690.56 45.846 1693.43 45.846H1694.62ZM1694.62 40.926H1693.43C1687.82 40.926 1683.22 45.518 1683.22 51.135C1683.22 56.752 1687.82 61.344 1693.43 61.344H1694.62V62H1693.43C1687.45 62 1682.57 57.121 1682.57 51.135C1682.57 45.149 1687.45 40.27 1693.43 40.27H1694.62V40.926ZM1700.14 40.926H1696.9V40.27H1700.14V33.3H1700.8V40.27H1705.72V33.3H1706.37V40.27H1709.61V40.926H1706.37V45.846H1709.61V46.502H1706.37V62H1705.72V46.502H1700.8V62H1700.14V46.502H1696.9V45.846H1700.14V40.926ZM1705.72 40.926H1700.8V45.846H1705.72V40.926ZM1711.6 46.953C1711.6 42.976 1714.8 39.778 1718.78 39.778C1721.73 39.778 1724.27 41.582 1725.38 44.124L1724.76 44.411C1723.78 42.074 1721.44 40.434 1718.78 40.434C1715.17 40.434 1712.26 43.345 1712.26 46.953C1712.26 50.028 1714.35 52.57 1717.22 53.308L1719.02 53.759C1719.72 53.923 1720.21 54.579 1720.21 55.317C1720.21 56.219 1719.51 56.916 1718.61 56.916C1717.92 56.916 1717.34 56.506 1717.1 55.85L1717.71 55.604C1717.83 55.973 1718.16 56.26 1718.61 56.26C1719.15 56.26 1719.56 55.85 1719.56 55.317C1719.56 54.866 1719.31 54.497 1718.86 54.374L1717.01 53.923C1713.9 53.144 1711.6 50.315 1711.6 46.953ZM1712.01 58.187L1712.63 57.9C1713.61 60.237 1715.91 61.836 1718.61 61.836C1722.22 61.836 1725.13 58.925 1725.13 55.317C1725.13 52.242 1723.04 49.7 1720.17 48.962L1718.37 48.511C1717.63 48.306 1717.18 47.691 1717.18 46.953C1717.18 46.051 1717.87 45.354 1718.78 45.354C1719.47 45.354 1720.05 45.805 1720.25 46.42L1719.68 46.666C1719.56 46.297 1719.19 46.01 1718.78 46.01C1718.24 46.01 1717.83 46.42 1717.83 46.953C1717.83 47.404 1718.08 47.773 1718.53 47.896L1720.38 48.347C1723.53 49.126 1725.79 51.955 1725.79 55.317C1725.79 59.294 1722.59 62.492 1718.61 62.492C1715.66 62.492 1713.12 60.729 1712.01 58.187ZM1752.12 47.65C1752.12 43.263 1748.84 39.696 1744.38 39.532V55.768C1748.84 55.604 1752.12 52.037 1752.12 47.65ZM1744.38 56.424V61.344C1751.84 61.18 1757.7 55.153 1757.7 47.65C1757.7 40.188 1751.84 34.12 1744.38 33.956V38.876C1749.25 39.04 1752.78 42.935 1752.78 47.65C1752.78 52.365 1749.25 56.26 1744.38 56.424ZM1738.14 62V33.3H1744.05C1752 33.3 1758.36 39.737 1758.36 47.65C1758.36 55.563 1752 62 1744.05 62H1738.14ZM1743.72 55.768V39.532H1738.8V55.768H1743.72ZM1743.72 56.424H1738.8V61.344H1743.72V56.424ZM1743.72 38.876V33.956H1738.8V38.876H1743.72ZM1771.6 62.492C1765.33 62.492 1760.24 57.408 1760.24 51.135C1760.24 44.862 1765.33 39.778 1771.6 39.778C1777.87 39.778 1782.96 44.862 1782.96 51.135C1782.96 57.408 1777.87 62.492 1771.6 62.492ZM1771.6 61.836C1777.5 61.836 1782.3 57.039 1782.3 51.135C1782.3 45.231 1777.5 40.434 1771.6 40.434C1765.7 40.434 1760.9 45.231 1760.9 51.135C1760.9 57.039 1765.7 61.836 1771.6 61.836ZM1771.6 56.916C1768.4 56.916 1765.82 54.333 1765.82 51.135C1765.82 47.937 1768.4 45.354 1771.6 45.354C1774.8 45.354 1777.38 47.937 1777.38 51.135C1777.38 54.333 1774.8 56.916 1771.6 56.916ZM1771.6 56.26C1774.43 56.26 1776.73 53.964 1776.73 51.135C1776.73 48.306 1774.43 46.01 1771.6 46.01C1768.77 46.01 1766.48 48.306 1766.48 51.135C1766.48 53.964 1768.77 56.26 1771.6 56.26ZM1784.71 51.135C1784.71 44.862 1789.79 39.778 1796.07 39.778C1797.91 39.778 1799.63 40.229 1801.19 41.008V40.27H1801.85V41.377C1804.14 42.648 1805.91 44.944 1806.77 47.322V40.27H1807.42V60.155C1807.42 66.428 1802.38 71.512 1796.07 71.512C1792.17 71.512 1788.73 69.503 1786.64 66.51L1787.21 66.182C1789.18 69.011 1792.42 70.856 1796.07 70.856C1802.05 70.856 1806.77 66.1 1806.77 60.155V54.907C1805.95 57.285 1804.1 59.663 1801.76 60.934C1801.35 63.722 1799.02 65.936 1796.07 65.936C1794.22 65.936 1792.54 65.034 1791.47 63.722L1792.05 63.394C1792.95 64.501 1794.47 65.28 1796.07 65.28C1798.53 65.28 1800.53 63.599 1801.07 61.344C1799.55 62.041 1797.83 62.492 1796.07 62.492C1789.79 62.492 1784.71 57.408 1784.71 51.135ZM1785.36 51.135C1785.36 57.039 1790.16 61.836 1796.07 61.836C1797.91 61.836 1799.63 61.385 1801.15 60.565C1801.19 60.278 1801.19 59.745 1801.19 59.212V53.841C1800.21 55.645 1798.28 56.916 1796.07 56.916C1792.87 56.916 1790.28 54.333 1790.28 51.135C1790.28 47.937 1792.87 45.354 1796.07 45.354C1798.28 45.354 1800.21 46.625 1801.19 48.47V41.746C1799.67 40.926 1797.91 40.434 1796.07 40.434C1790.16 40.434 1785.36 45.231 1785.36 51.135ZM1790.94 51.135C1790.94 53.964 1793.24 56.26 1796.07 56.26C1798.94 56.26 1801.19 53.964 1801.19 51.135C1801.19 48.306 1798.94 46.01 1796.07 46.01C1793.24 46.01 1790.94 48.306 1790.94 51.135ZM1801.85 42.115V60.155C1804.59 58.474 1806.77 55.071 1806.77 51.135C1806.77 47.199 1804.59 43.796 1801.85 42.115ZM1826.94 50.11H1834.85V50.766H1826.94V62H1826.28V50.766H1821.36V62H1820.7V33.3H1837.8V33.956H1826.94V38.876H1837.8V39.532H1826.94V44.534H1834.85V45.19H1826.94V50.11ZM1821.36 39.532V44.534H1826.28V39.532H1821.36ZM1826.28 45.19H1821.36V50.11H1826.28V45.19ZM1821.36 33.956V38.876H1826.28V33.956H1821.36ZM1854.54 42.115V60.155C1857.28 58.474 1859.46 55.071 1859.46 51.135C1859.46 47.199 1857.28 43.796 1854.54 42.115ZM1848.76 39.778C1850.6 39.778 1852.32 40.229 1853.88 41.008V40.27H1854.54V41.377C1856.83 42.648 1858.6 44.944 1859.46 47.322V40.27H1860.11V62H1859.46V54.907C1858.64 57.244 1856.83 59.663 1854.54 60.934V62H1853.88V61.262C1852.32 62.041 1850.6 62.492 1848.76 62.492C1842.48 62.492 1837.4 57.408 1837.4 51.135C1837.4 44.862 1842.48 39.778 1848.76 39.778ZM1848.76 61.836C1850.6 61.836 1852.36 61.385 1853.88 60.565V53.841C1852.9 55.645 1850.97 56.916 1848.76 56.916C1845.56 56.916 1842.97 54.333 1842.97 51.135C1842.97 47.937 1845.56 45.354 1848.76 45.354C1850.97 45.354 1852.9 46.625 1853.88 48.47V41.746C1852.36 40.926 1850.6 40.434 1848.76 40.434C1842.85 40.434 1838.05 45.231 1838.05 51.135C1838.05 57.039 1842.85 61.836 1848.76 61.836ZM1848.76 56.26C1851.63 56.26 1853.88 53.964 1853.88 51.135C1853.88 48.306 1851.63 46.01 1848.76 46.01C1845.93 46.01 1843.63 48.306 1843.63 51.135C1843.63 53.964 1845.93 56.26 1848.76 56.26ZM1875.16 45.846V46.502H1873.97C1871.47 46.502 1869.34 48.634 1869.34 51.135C1869.34 53.636 1871.47 55.768 1873.97 55.768H1875.16V56.424H1873.97C1871.1 56.424 1868.68 54.005 1868.68 51.135C1868.68 48.265 1871.1 45.846 1873.97 45.846H1875.16ZM1875.16 40.926H1873.97C1868.35 40.926 1863.76 45.518 1863.76 51.135C1863.76 56.752 1868.35 61.344 1873.97 61.344H1875.16V62H1873.97C1867.98 62 1863.1 57.121 1863.1 51.135C1863.1 45.149 1867.98 40.27 1873.97 40.27H1875.16V40.926ZM1880.68 40.926H1877.44V40.27H1880.68V33.3H1881.33V40.27H1886.25V33.3H1886.91V40.27H1890.15V40.926H1886.91V45.846H1890.15V46.502H1886.91V62H1886.25V46.502H1881.33V62H1880.68V46.502H1877.44V45.846H1880.68V40.926ZM1886.25 40.926H1881.33V45.846H1886.25V40.926ZM1892.14 46.953C1892.14 42.976 1895.34 39.778 1899.31 39.778C1902.26 39.778 1904.81 41.582 1905.91 44.124L1905.3 44.411C1904.31 42.074 1901.98 40.434 1899.31 40.434C1895.7 40.434 1892.79 43.345 1892.79 46.953C1892.79 50.028 1894.88 52.57 1897.75 53.308L1899.56 53.759C1900.26 53.923 1900.75 54.579 1900.75 55.317C1900.75 56.219 1900.05 56.916 1899.15 56.916C1898.45 56.916 1897.88 56.506 1897.63 55.85L1898.25 55.604C1898.37 55.973 1898.7 56.26 1899.15 56.26C1899.68 56.26 1900.09 55.85 1900.09 55.317C1900.09 54.866 1899.85 54.497 1899.39 54.374L1897.55 53.923C1894.43 53.144 1892.14 50.315 1892.14 46.953ZM1892.55 58.187L1893.16 57.9C1894.15 60.237 1896.44 61.836 1899.15 61.836C1902.76 61.836 1905.67 58.925 1905.67 55.317C1905.67 52.242 1903.58 49.7 1900.71 48.962L1898.9 48.511C1898.16 48.306 1897.71 47.691 1897.71 46.953C1897.71 46.051 1898.41 45.354 1899.31 45.354C1900.01 45.354 1900.58 45.805 1900.79 46.42L1900.21 46.666C1900.09 46.297 1899.72 46.01 1899.31 46.01C1898.78 46.01 1898.37 46.42 1898.37 46.953C1898.37 47.404 1898.62 47.773 1899.07 47.896L1900.91 48.347C1904.07 49.126 1906.32 51.955 1906.32 55.317C1906.32 59.294 1903.13 62.492 1899.15 62.492C1896.2 62.492 1893.65 60.729 1892.55 58.187ZM1932.66 47.65C1932.66 43.263 1929.38 39.696 1924.91 39.532V55.768C1929.38 55.604 1932.66 52.037 1932.66 47.65ZM1924.91 56.424V61.344C1932.37 61.18 1938.24 55.153 1938.24 47.65C1938.24 40.188 1932.37 34.12 1924.91 33.956V38.876C1929.79 39.04 1933.32 42.935 1933.32 47.65C1933.32 52.365 1929.79 56.26 1924.91 56.424ZM1918.68 62V33.3H1924.58C1932.54 33.3 1938.89 39.737 1938.89 47.65C1938.89 55.563 1932.54 62 1924.58 62H1918.68ZM1924.26 55.768V39.532H1919.34V55.768H1924.26ZM1924.26 56.424H1919.34V61.344H1924.26V56.424ZM1924.26 38.876V33.956H1919.34V38.876H1924.26ZM1952.14 62.492C1945.86 62.492 1940.78 57.408 1940.78 51.135C1940.78 44.862 1945.86 39.778 1952.14 39.778C1958.41 39.778 1963.49 44.862 1963.49 51.135C1963.49 57.408 1958.41 62.492 1952.14 62.492ZM1952.14 61.836C1958.04 61.836 1962.84 57.039 1962.84 51.135C1962.84 45.231 1958.04 40.434 1952.14 40.434C1946.23 40.434 1941.44 45.231 1941.44 51.135C1941.44 57.039 1946.23 61.836 1952.14 61.836ZM1952.14 56.916C1948.94 56.916 1946.36 54.333 1946.36 51.135C1946.36 47.937 1948.94 45.354 1952.14 45.354C1955.33 45.354 1957.92 47.937 1957.92 51.135C1957.92 54.333 1955.33 56.916 1952.14 56.916ZM1952.14 56.26C1954.97 56.26 1957.26 53.964 1957.26 51.135C1957.26 48.306 1954.97 46.01 1952.14 46.01C1949.31 46.01 1947.01 48.306 1947.01 51.135C1947.01 53.964 1949.31 56.26 1952.14 56.26ZM1965.24 51.135C1965.24 44.862 1970.33 39.778 1976.6 39.778C1978.45 39.778 1980.17 40.229 1981.73 41.008V40.27H1982.38V41.377C1984.68 42.648 1986.44 44.944 1987.3 47.322V40.27H1987.96V60.155C1987.96 66.428 1982.92 71.512 1976.6 71.512C1972.71 71.512 1969.26 69.503 1967.17 66.51L1967.75 66.182C1969.71 69.011 1972.95 70.856 1976.6 70.856C1982.59 70.856 1987.3 66.1 1987.3 60.155V54.907C1986.48 57.285 1984.64 59.663 1982.3 60.934C1981.89 63.722 1979.55 65.936 1976.6 65.936C1974.76 65.936 1973.08 65.034 1972.01 63.722L1972.58 63.394C1973.49 64.501 1975 65.28 1976.6 65.28C1979.06 65.28 1981.07 63.599 1981.6 61.344C1980.09 62.041 1978.36 62.492 1976.6 62.492C1970.33 62.492 1965.24 57.408 1965.24 51.135ZM1965.9 51.135C1965.9 57.039 1970.7 61.836 1976.6 61.836C1978.45 61.836 1980.17 61.385 1981.69 60.565C1981.73 60.278 1981.73 59.745 1981.73 59.212V53.841C1980.74 55.645 1978.82 56.916 1976.6 56.916C1973.4 56.916 1970.82 54.333 1970.82 51.135C1970.82 47.937 1973.4 45.354 1976.6 45.354C1978.82 45.354 1980.74 46.625 1981.73 48.47V41.746C1980.21 40.926 1978.45 40.434 1976.6 40.434C1970.7 40.434 1965.9 45.231 1965.9 51.135ZM1971.48 51.135C1971.48 53.964 1973.77 56.26 1976.6 56.26C1979.47 56.26 1981.73 53.964 1981.73 51.135C1981.73 48.306 1979.47 46.01 1976.6 46.01C1973.77 46.01 1971.48 48.306 1971.48 51.135ZM1982.38 42.115V60.155C1985.13 58.474 1987.3 55.071 1987.3 51.135C1987.3 47.199 1985.13 43.796 1982.38 42.115Z" fill="white"/>
</g>
<defs>
<clipPath id="clip0_443_857">
<rect width="1940" height="343" fill="white"/>
</clipPath>
</defs>
</svg>
